<?xml version="1.0" standalone="no"?>
<!DOCTYPE svg PUBLIC "-//W3C//DTD SVG 20010904//EN"
 "http://www.w3.org/TR/2001/REC-SVG-20010904/DTD/svg10.dtd">
<svg version="1.0" xmlns="http://www.w3.org/2000/svg"
 width="300.000000pt" height="375.000000pt" viewBox="0 0 300.000000 375.000000"
 preserveAspectRatio="xMidYMid meet">
<metadata>
Created by potrace 1.10, written by Peter Selinger 2001-2011
</metadata>
<g transform="translate(0.000000,375.000000) scale(0.100000,-0.100000)"
fill="#000000" stroke="none">
<path d="M1140 3620 c-25 -4 -50 -5 -56 -3 -18 7 -145 -25 -204 -51 -30 -14
-63 -27 -72 -30 -9 -3 -25 -17 -34 -31 -14 -22 -15 -33 -7 -55 6 -17 7 -34 1
-44 -6 -10 -4 -24 4 -38 7 -13 13 -36 14 -53 4 -67 19 -100 57 -124 33 -22 37
-29 37 -68 0 -25 10 -66 21 -93 12 -28 19 -60 16 -72 -3 -13 1 -41 10 -63 8
-22 19 -64 24 -93 5 -30 16 -63 23 -75 8 -12 16 -43 20 -69 3 -26 15 -64 26
-85 11 -21 20 -52 20 -69 0 -17 7 -37 15 -44 8 -7 15 -20 15 -29 0 -9 11 -33
25 -53 30 -44 31 -58 8 -59 -25 -1 -70 -6 -123 -14 -36 -6 -49 -4 -59 9 -18
22 -44 20 -66 -5 -15 -16 -26 -19 -56 -14 -51 9 -108 -4 -120 -26 -7 -14 -5
-27 7 -50 9 -18 17 -61 18 -103 2 -39 6 -78 10 -86 3 -8 10 -44 15 -80 18
-120 34 -160 68 -160 7 0 13 -4 13 -10 0 -22 80 -47 175 -55 82 -6 287 -15
328 -15 30 0 37 -3 37 -18 0 -10 9 -27 20 -37 15 -14 17 -21 8 -32 -8 -10 -8
-20 1 -40 9 -21 9 -30 -4 -49 -21 -33 -19 -60 7 -78 18 -13 21 -24 20 -71 -1
-30 -6 -64 -12 -74 -6 -13 -7 -28 -1 -44 8 -19 15 -23 35 -20 33 7 33 -4 1
-29 -30 -24 -32 -51 -5 -78 26 -26 25 -40 -3 -40 -13 0 -32 -9 -43 -21 -25
-27 -8 -54 35 -54 17 0 31 -4 31 -10 -1 -17 -37 -55 -53 -55 -20 0 -47 -33
-47 -56 0 -29 19 -44 56 -44 18 0 35 -3 37 -8 8 -11 -25 -46 -55 -59 -49 -22
-31 -72 27 -74 29 0 29 -1 -15 -22 -40 -20 -45 -26 -43 -52 8 -97 3 -146 -16
-184 -29 -55 -26 -75 14 -120 30 -32 35 -46 35 -86 0 -40 5 -51 30 -73 17 -15
30 -32 30 -38 0 -6 9 -19 20 -29 11 -10 20 -26 20 -35 0 -23 38 -70 56 -70 8
0 22 16 32 36 9 21 31 52 47 69 17 18 39 46 51 61 27 37 95 189 95 212 0 38
-20 105 -38 130 -15 21 -18 40 -16 85 4 67 -6 87 -46 87 -41 0 -54 19 -28 41
20 16 21 20 8 51 -7 18 -16 49 -19 68 -4 31 -3 33 12 21 14 -12 19 -11 36 4
28 26 24 44 -20 95 -22 24 -37 46 -35 49 3 2 17 4 31 5 53 2 57 56 7 81 -21
11 -21 11 3 32 33 29 31 66 -3 82 l-26 12 21 15 c22 15 30 58 12 69 -6 3 -5
15 2 31 9 20 9 30 -1 46 -11 17 -9 24 11 45 22 24 22 25 5 54 -15 27 -15 33
-2 59 8 16 14 51 13 84 -1 31 1 58 4 61 2 3 72 8 154 11 201 8 262 12 309 22
57 12 134 67 141 100 3 15 8 34 11 42 3 8 6 44 8 78 3 35 9 70 15 77 17 20 22
201 7 213 -7 5 -30 12 -52 16 -91 14 -111 20 -135 37 -24 19 -26 19 -65 0 -37
-18 -45 -19 -110 -6 -38 7 -73 11 -77 9 -5 -3 -8 -3 -8 1 0 11 81 165 91 170
5 4 9 22 9 41 0 19 9 52 20 74 11 21 23 64 26 94 4 31 10 56 14 56 11 0 21 28
26 75 3 22 12 59 20 83 8 23 14 53 14 65 1 12 9 47 20 77 11 30 19 76 20 101
0 42 3 47 35 62 25 12 35 23 35 40 0 12 7 33 16 45 9 13 13 31 9 43 -4 11 -1
26 5 34 7 8 10 29 8 47 -3 18 -1 43 5 55 23 50 -66 110 -222 148 -80 19 -371
28 -426 13 -44 -13 -166 -18 -184 -9 -22 12 -236 19 -291 11z m133 -40 c5 -18
0 -20 -38 -20 -31 0 -47 5 -54 18 -6 9 -11 13 -11 8 0 -6 12 -23 27 -38 15
-15 28 -36 30 -47 2 -16 -2 -17 -37 -11 -22 4 -37 3 -34 -1 9 -15 -9 -10 -44
11 -19 12 -42 18 -52 15 -23 -7 -70 14 -70 32 0 7 -5 13 -11 13 -5 0 -7 -4 -4
-10 3 -5 0 -7 -8 -4 -8 3 -17 1 -20 -4 -4 -4 22 -16 56 -26 34 -10 71 -22 82
-27 38 -17 -58 2 -128 26 -37 13 -70 19 -73 14 -3 -5 -10 -6 -16 -3 -11 7 47
35 66 33 6 -1 24 3 39 9 37 16 37 16 34 -10 -1 -15 4 -23 18 -25 20 -4 20 -4
1 12 -11 8 -14 15 -7 15 7 0 10 4 7 9 -7 11 17 21 49 21 14 0 25 -7 28 -20 4
-17 0 -20 -23 -20 -16 0 -30 5 -32 12 -3 9 -6 9 -12 0 -9 -15 36 -34 61 -26
13 4 14 3 5 -3 -21 -15 27 -29 77 -23 l45 5 -36 28 c-20 15 -46 27 -57 27 -12
0 -21 4 -21 9 0 10 37 17 111 19 39 2 48 -1 52 -18z m47 -1 c0 -5 -7 -9 -15
-9 -8 0 -15 7 -15 15 0 9 6 12 15 9 8 -4 15 -10 15 -15z m119 -20 c7 -17 17
-26 24 -22 6 3 31 6 56 6 54 -1 83 11 75 32 -4 9 0 15 7 16 8 0 25 2 38 5 22
4 40 -9 41 -28 0 -5 -11 -8 -24 -8 -32 0 -87 -20 -81 -30 7 -11 -31 -20 -82
-20 -33 0 -43 4 -48 19 -4 15 -17 21 -48 23 -24 2 -40 7 -37 13 3 6 8 9 12 8
4 -2 5 3 2 10 -3 10 3 13 23 10 20 -3 33 -14 42 -34z m261 31 c0 -5 -5 -10
-11 -10 -5 0 -7 5 -4 10 3 6 8 10 11 10 2 0 4 -4 4 -10z m40 1 c0 -6 -9 -17
-21 -25 -12 -8 -18 -19 -14 -25 5 -9 26 10 63 59 1 2 7 -2 12 -10 7 -10 10
-11 10 -2 0 9 18 11 65 10 l65 -3 -6 -27 c-5 -23 -3 -27 11 -22 13 5 14 8 3
15 -10 7 -11 9 0 9 7 0 10 5 7 10 -4 6 10 10 34 10 23 0 41 -5 41 -11 0 -5 4
-8 8 -5 5 3 22 1 38 -4 l29 -10 -32 3 c-18 2 -33 0 -33 -5 0 -4 5 -8 10 -8 6
0 10 -5 10 -11 0 -8 -4 -8 -14 0 -7 6 -21 8 -31 5 -11 -5 -13 -9 -5 -14 8 -5
7 -9 -5 -13 -9 -4 -13 -3 -10 3 8 14 3 13 -36 -7 -41 -21 -106 -25 -113 -6 -3
7 1 13 8 13 8 0 16 7 20 15 3 8 13 15 23 15 13 0 15 -2 5 -9 -10 -6 -10 -10 1
-20 20 -16 133 32 121 51 -6 9 -9 9 -12 0 -4 -12 -64 -42 -84 -42 -6 0 -8 13
-6 30 4 24 2 27 -9 19 -7 -7 -13 -8 -13 -3 0 4 -12 -3 -26 -17 -18 -17 -37
-24 -65 -24 -21 0 -39 3 -39 8 0 5 19 7 41 5 35 -2 44 1 57 22 16 24 16 25 -3
8 -11 -9 -40 -18 -65 -20 -37 -2 -45 -7 -45 -23 -1 -21 -24 -23 -36 -3 -4 6
-11 3 -18 -8 -6 -11 -11 -13 -11 -7 0 9 -7 10 -26 3 -37 -14 -54 -12 -48 5 3
8 9 14 12 13 4 0 9 1 12 2 19 7 50 5 50 -4 0 -6 6 -2 12 9 24 44 58 70 58 46z
m-397 -23 c-2 -13 3 -32 12 -43 14 -17 16 -17 11 -2 -7 21 19 24 28 2 3 -9 0
-15 -10 -15 -11 0 -14 -7 -10 -22 3 -13 3 -18 1 -12 -4 7 -19 9 -45 4 -22 -4
-40 -3 -40 1 0 5 -10 8 -21 6 -12 -1 -24 5 -27 13 -5 13 -3 13 11 1 28 -22 19
-4 -10 24 l-28 25 27 -2 c15 -1 24 -6 22 -10 -3 -4 0 -8 5 -8 6 0 11 -7 11
-15 0 -8 2 -15 4 -15 2 0 12 -3 22 -7 12 -4 15 -3 10 5 -10 16 16 16 32 0 19
-19 14 4 -7 31 -10 13 -16 32 -14 42 7 27 21 23 16 -3z m227 2 c0 -5 -25 -10
-55 -10 -30 0 -55 5 -55 10 0 6 25 10 55 10 30 0 55 -4 55 -10z m550 -15 c7
-8 17 -12 22 -9 6 4 14 1 18 -6 4 -7 20 -14 36 -16 16 -1 34 -11 41 -20 15
-21 17 -38 3 -29 -5 3 -7 0 -4 -8 11 -28 27 -26 -383 -51 -174 -11 -239 -19
-263 -31 -24 -12 -29 -20 -21 -28 13 -13 121 -26 121 -15 0 5 6 8 13 6 6 -1
71 1 142 6 266 15 372 30 378 55 3 14 5 13 12 -2 14 -33 -17 -48 -126 -63
-124 -16 -199 -18 -199 -4 0 6 -4 10 -10 10 -5 0 -7 -7 -4 -15 5 -13 -8 -15
-82 -17 -49 -1 -114 -3 -144 -3 -79 -2 -117 -13 -123 -35 -7 -27 -1 -30 69
-30 35 0 66 -4 69 -10 3 -5 12 -10 18 -10 7 0 6 4 -3 11 -12 8 -9 10 13 6 15
-2 27 0 27 4 0 5 21 9 48 9 41 0 84 4 272 25 62 6 149 23 162 31 6 4 9 1 6 -7
-6 -17 -77 -38 -142 -41 -28 -2 -53 -6 -56 -10 -8 -11 -264 -36 -268 -26 -2 4
-15 3 -29 -3 -14 -5 -54 -9 -88 -7 -43 1 -69 -3 -81 -12 -16 -14 -16 -13 -4
10 12 23 12 24 -3 11 -10 -7 -17 -20 -17 -27 0 -8 -4 -14 -10 -14 -5 0 -10 5
-10 11 0 5 -5 7 -10 4 -17 -11 -1 -24 28 -24 15 0 77 0 138 0 66 0 180 9 284
23 96 14 177 23 181 20 4 -2 9 0 11 4 1 5 16 12 32 16 26 6 28 5 17 -8 -14
-17 -76 -31 -216 -50 -16 -3 -46 -7 -65 -10 -92 -13 -133 -17 -239 -21 -92 -4
-120 -9 -147 -26 -19 -11 -34 -17 -34 -12 0 19 -70 34 -170 37 -58 2 -130 6
-160 10 -75 10 -240 35 -267 41 -13 3 -32 7 -43 9 -11 3 -24 7 -29 11 -14 8
-9 43 6 41 22 -3 27 -16 7 -17 -26 -1 56 -26 109 -33 116 -15 194 -26 214 -30
12 -3 77 -8 145 -11 68 -4 126 -9 130 -11 4 -3 13 5 21 16 13 19 15 19 21 4 4
-10 1 -21 -5 -25 -17 -10 26 -22 52 -14 15 5 18 10 10 18 -8 8 -14 8 -23 -1
-20 -20 -25 -14 -24 26 1 30 -3 38 -17 39 -9 1 -16 -1 -13 -5 2 -4 -71 -3
-162 1 -111 5 -169 12 -174 20 -4 7 -8 7 -8 2 0 -7 -24 -8 -75 -1 -50 6 -71
12 -63 18 8 6 2 7 -17 3 -29 -5 -150 16 -163 29 -12 12 5 14 48 5 25 -5 70
-12 101 -15 82 -8 85 -9 105 -24 14 -12 16 -12 10 -1 -7 11 4 12 64 6 39 -4
82 -10 95 -14 40 -10 260 2 260 16 0 6 3 15 8 19 7 7 11 -9 8 -33 -1 -6 6 -10
16 -8 10 2 20 4 23 4 3 1 -2 6 -10 11 -13 9 -11 14 12 34 22 19 24 25 12 30
-8 3 -13 2 -11 -2 2 -4 -4 -15 -15 -24 -16 -16 -21 -15 -20 2 0 3 -8 7 -19 7
-11 1 -17 -2 -14 -7 3 -6 -6 -6 -22 0 -22 6 -249 22 -333 22 -40 0 -221 20
-267 29 -54 11 -78 38 -54 62 8 8 11 7 11 -5 0 -20 22 -29 79 -34 25 -2 48 -9
53 -16 6 -10 8 -10 8 0 0 6 7 12 15 12 9 0 12 -6 9 -17 -4 -11 -3 -14 3 -7 11
15 16 15 256 2 160 -9 210 -9 219 0 34 34 -77 61 -249 62 -51 0 -93 3 -93 8 0
4 -38 6 -85 5 -101 -2 -215 13 -232 30 -16 16 -7 50 19 66 11 7 17 8 13 2 -3
-6 1 -11 10 -11 9 0 14 4 11 9 -3 5 13 2 36 -6 22 -8 46 -12 52 -10 6 3 16 -1
22 -7 8 -8 1 -12 -28 -12 -21 -1 -38 2 -38 6 0 4 -20 8 -45 8 -68 2 -54 -15
19 -23 50 -5 64 -10 59 -21 -3 -8 0 -14 6 -14 6 0 11 7 11 15 0 12 14 15 70
15 40 0 70 -4 70 -10 0 -5 -8 -10 -17 -10 -15 0 -16 -2 -3 -10 11 -7 17 -4 24
10 12 27 102 27 109 -1 3 -11 14 -19 26 -19 27 0 27 8 -1 20 -17 6 -4 9 50 9
65 1 74 -1 79 -18 6 -22 33 -37 42 -23 3 5 14 8 24 6 9 -1 17 2 17 8 0 6 -12
8 -30 5 -17 -4 -32 -2 -36 5 -5 8 9 9 49 5 65 -8 84 -15 90 -30 2 -7 3 -4 2 5
-2 13 4 17 24 16 14 -1 39 2 55 7 21 6 27 5 22 -4 -4 -6 -2 -11 4 -11 6 0 8
-4 5 -10 -4 -7 2 -7 18 -1 14 6 28 7 33 3 4 -4 4 -2 0 5 -4 7 -13 10 -20 7 -8
-3 -17 -1 -21 5 -3 6 -3 11 2 12 4 0 19 2 33 5 14 2 117 7 229 10 160 6 202 4
197 -5 -5 -7 -14 -10 -22 -7 -7 3 -16 1 -19 -4 -4 -6 3 -10 14 -10 28 0 52 11
46 21 -3 4 22 11 55 15 67 7 78 15 53 35 -14 12 -16 12 -11 -2 5 -13 -1 -15
-44 -12 -27 2 -47 -1 -44 -6 3 -4 -8 -8 -23 -7 -29 1 -33 16 -5 16 9 0 12 5 8
11 -4 8 3 9 24 4 18 -3 33 -2 37 4 9 16 -46 14 -86 -3 -41 -17 -140 -36 -134
-26 3 4 21 11 40 14 19 4 35 11 35 15 0 5 6 9 13 8 39 -1 56 5 62 23 8 24 18
25 35 5z m-953 -15 l26 -20 -27 0 c-18 0 -26 5 -27 18 0 14 -2 14 -9 -3 -8
-19 -9 -19 -9 3 -1 27 13 28 46 2z m159 -17 c-8 -9 -46 18 -40 28 4 6 13 4 25
-7 11 -9 17 -19 15 -21z m102 -1 c6 -18 -15 -14 -22 4 -4 10 -1 14 6 12 6 -2
14 -10 16 -16z m386 -33 c-5 -8 -9 -8 -14 1 -5 8 -13 9 -21 4 -21 -12 -53 -13
-61 0 -5 8 -8 7 -8 -1 0 -7 -7 -13 -15 -13 -8 0 -15 7 -15 16 0 13 7 15 30 11
16 -4 32 -2 36 4 3 6 15 9 25 6 10 -3 22 0 25 5 4 7 10 4 16 -6 5 -9 6 -21 2
-27z m-144 12 c-1 -17 -18 -28 -40 -26 -14 1 -30 -1 -35 -6 -6 -4 -20 -8 -30
-8 -11 0 -33 -2 -50 -4 -16 -3 -22 -2 -12 0 9 2 17 8 17 13 0 4 8 10 18 13 9
2 26 8 37 12 20 7 20 6 1 -9 -17 -14 -17 -16 -3 -16 9 0 20 6 24 14 10 17 73
32 73 17z m-250 -17 c0 -9 -5 -14 -12 -12 -18 6 -21 28 -4 28 9 0 16 -7 16
-16z m63 -16 c-10 -3 -27 -7 -38 -7 -20 0 -20 0 0 9 11 5 14 9 8 9 -7 1 -13 5
-13 10 0 5 14 4 30 -2 26 -10 28 -13 13 -19z m-643 -58 c0 -5 -2 -10 -4 -10
-3 0 -8 5 -11 10 -3 6 -1 10 4 10 6 0 11 -4 11 -10z m38 -4 c-2 -1 -12 -8 -23
-16 -18 -14 -19 -13 -8 1 7 9 10 19 6 23 -4 4 1 4 10 0 10 -3 17 -7 15 -8z
m1254 -8 c-7 -7 -12 -8 -12 -2 0 14 12 26 19 19 2 -3 -1 -11 -7 -17z m68 14
c0 -4 -12 -9 -27 -10 -22 -1 -24 0 -13 8 18 12 40 13 40 2z m-1290 -12 c0 -5
-4 -10 -10 -10 -5 0 -10 5 -10 10 0 6 5 10 10 10 6 0 10 -4 10 -10z m50 -4 c0
-9 -9 -14 -20 -13 -11 1 -20 7 -20 14 0 7 9 13 20 13 11 0 20 -6 20 -14z m46
-13 c-10 -10 -19 5 -10 18 6 11 8 11 12 0 2 -7 1 -15 -2 -18z m944 17 c-13 -8
-13 -10 1 -10 9 0 19 3 23 7 12 12 36 12 36 -1 0 -8 -18 -13 -50 -15 -63 -3
-67 21 -5 28 6 0 3 -4 -5 -9z m90 -5 c0 -8 -4 -15 -10 -15 -5 0 -10 7 -10 15
0 8 5 15 10 15 6 0 10 -7 10 -15z m17 -7 c-3 -8 -6 -5 -6 6 -1 11 2 17 5 13 3
-3 4 -12 1 -19z m53 11 c0 -6 -7 -8 -16 -5 -8 3 -12 2 -9 -4 3 -6 1 -10 -4
-10 -6 0 -11 7 -11 15 0 8 9 15 20 15 11 0 20 -5 20 -11z m-997 -8 c5 -1 6 -5
3 -9 -4 -7 -39 -8 -88 -3 -5 1 -8 6 -8 12 0 6 16 8 43 5 23 -2 46 -5 50 -5z
m787 -3 c0 -13 -19 -19 -25 -8 -4 6 -10 8 -15 5 -5 -3 -11 -1 -15 4 -3 6 7 9
25 8 16 -1 30 -5 30 -9z m-710 -2 c0 -8 -51 -13 -56 -5 -3 5 9 9 25 9 17 0 31
-2 31 -4z m580 -5 c0 -5 -9 -11 -19 -14 -14 -3 -18 -1 -14 9 6 15 33 19 33 5z
m-476 -10 c4 -5 -3 -7 -14 -4 -23 6 -26 13 -6 13 8 0 17 -4 20 -9z m46 -1 c0
-5 -7 -10 -15 -10 -8 0 -15 5 -15 10 0 6 7 10 15 10 8 0 15 -4 15 -10z m48 0
c1 -2 6 -3 11 -4 16 -2 25 -16 10 -16 -25 0 -59 12 -59 20 0 7 29 6 38 0z
m292 0 c0 -5 -17 -10 -37 -9 -31 0 -34 2 -18 9 28 12 55 12 55 0z m40 0 c0 -5
-7 -10 -15 -10 -8 0 -15 5 -15 10 0 6 7 10 15 10 8 0 15 -4 15 -10z m498 -31
c-2 -6 -7 -10 -12 -9 -5 1 -13 -4 -17 -12 -7 -10 -9 -9 -9 4 0 9 8 19 18 21 9
3 19 5 20 6 2 0 2 -4 0 -10z m-1350 -14 c1 -6 -5 -9 -13 -9 -8 1 -22 2 -30 3
-8 0 -15 6 -15 12 0 13 54 7 58 -6z m1227 -5 c3 -5 2 -10 -4 -10 -5 0 -13 5
-16 10 -3 6 -2 10 4 10 5 0 13 -4 16 -10z m22 -12 c-3 -8 -6 -5 -6 6 -1 11 2
17 5 13 3 -3 4 -12 1 -19z m53 14 c0 -4 -9 -8 -20 -9 -11 -1 -20 2 -20 5 0 4
9 8 20 9 11 1 20 -2 20 -5z m-1210 -6 c0 -2 -7 -6 -15 -10 -8 -3 -15 -1 -15 4
0 6 7 10 15 10 8 0 15 -2 15 -4z m60 -11 c0 -8 -4 -15 -10 -15 -5 0 -10 7 -10
15 0 8 5 15 10 15 6 0 10 -7 10 -15z m1010 6 c0 -6 -4 -13 -10 -16 -5 -3 -10
1 -10 9 0 9 5 16 10 16 6 0 10 -4 10 -9z m-910 -17 c0 -8 -4 -12 -10 -9 -5 3
-10 10 -10 16 0 5 5 9 10 9 6 0 10 -7 10 -16z m48 -6 c-6 -16 -21 -14 -24 4
-1 11 3 15 12 11 8 -3 13 -10 12 -15z m719 7 c0 -8 -6 -15 -14 -15 -14 0 -17
12 -6 23 11 11 20 8 20 -8z m37 0 c-4 -8 -10 -15 -15 -15 -4 0 -6 7 -3 15 4 8
10 15 15 15 4 0 6 -7 3 -15z m-174 -15 c-8 -5 -17 -7 -19 -4 -3 3 1 9 9 14 8
5 17 7 19 4 3 -3 -1 -9 -9 -14z m-450 -5 c0 -6 -6 -12 -13 -12 -8 0 -14 6 -14
12 0 6 6 12 14 12 7 0 13 -6 13 -12z m40 0 c0 -9 -6 -12 -15 -9 -8 4 -15 10
-15 15 0 5 7 9 15 9 8 0 15 -7 15 -15z m70 -5 c-47 -6 -63 -3 -56 8 2 4 26 5
53 3 l48 -5 -45 -6z m260 11 c0 -5 -21 -9 -47 -9 -25 0 -41 3 -35 7 18 11 82
13 82 2z m50 -1 c0 -5 -9 -10 -21 -10 -11 0 -17 5 -14 10 3 6 13 10 21 10 8 0
14 -4 14 -10z m485 -20 c-27 -12 -35 -12 -35 0 0 6 12 10 28 9 24 0 25 -1 7
-9z m-1275 -20 c0 -5 -2 -10 -4 -10 -3 0 -8 5 -11 10 -3 6 -1 10 4 10 6 0 11
-4 11 -10z m1090 -10 c0 -5 -4 -10 -10 -10 -5 0 -10 5 -10 10 0 6 5 10 10 10
6 0 10 -4 10 -10z m-105 -10 c3 -5 -1 -10 -10 -10 -9 0 -13 5 -10 10 3 6 8 10
10 10 2 0 7 -4 10 -10z m-778 -6 c-3 -3 -12 -4 -19 -1 -8 3 -5 6 6 6 11 1 17
-2 13 -5z m733 -4 c0 -5 -2 -10 -4 -10 -3 0 -8 5 -11 10 -3 6 -1 10 4 10 6 0
11 -4 11 -10z m-605 -9 l40 -9 -45 0 c-25 0 -54 3 -65 8 -18 8 -18 9 5 9 14 0
43 -4 65 -8z m485 -1 c0 -5 -7 -10 -16 -10 -8 0 -12 5 -9 10 3 6 10 10 16 10
5 0 9 -4 9 -10z m73 3 c-13 -2 -33 -2 -45 0 -13 2 -3 4 22 4 25 0 35 -2 23 -4z
m-436 -9 c-3 -3 -12 -4 -19 -1 -8 3 -5 6 6 6 11 1 17 -2 13 -5z m276 -1 c-7
-2 -19 -2 -25 0 -7 3 -2 5 12 5 14 0 19 -2 13 -5z m44 1 c-3 -3 -12 -4 -19 -1
-8 3 -5 6 6 6 11 1 17 -2 13 -5z m419 -58 c0 -30 -4 -58 -8 -62 -5 -4 -8 1 -8
12 0 16 -2 17 -11 4 -8 -12 -9 -9 -4 10 4 14 9 39 10 55 4 37 3 35 14 35 4 0
8 -24 7 -54z m-1204 12 c3 -18 8 -42 13 -53 8 -20 8 -20 -8 0 -16 20 -16 20
-10 -2 3 -13 1 -23 -3 -23 -5 0 -10 25 -11 55 -2 59 12 76 19 23z m110 -32 c2
-17 -2 -31 -10 -33 -7 -3 -10 1 -6 11 3 9 1 30 -5 48 -10 29 -10 31 3 18 8 -8
16 -28 18 -44z m986 14 c-1 -24 -6 -39 -12 -37 -10 4 -11 38 -1 65 9 24 15 11
13 -28z m67 18 c-14 -48 -45 -185 -50 -223 -7 -54 -36 -144 -48 -152 -7 -4 -7
2 -2 18 4 13 9 47 9 74 1 28 6 57 11 65 5 8 13 40 17 70 20 162 23 169 57 170
9 0 11 -7 6 -22z m-1101 -15 c13 -66 18 -91 25 -145 4 -31 13 -63 19 -71 8 -9
10 -26 6 -42 -7 -29 6 -82 38 -156 11 -25 18 -55 16 -66 -1 -11 2 -31 8 -44
21 -46 54 -134 54 -147 0 -6 -4 -12 -10 -12 -5 0 -10 9 -10 20 0 11 -4 28 -9
38 -4 9 -15 31 -23 47 -9 17 -19 48 -22 69 -4 21 -13 48 -21 60 -7 12 -15 42
-19 69 -3 26 -12 60 -20 75 -8 15 -17 50 -20 77 -6 55 -39 210 -51 238 -5 13
-2 17 13 17 14 0 22 -8 26 -27z m119 -3 c5 -4 10 -33 12 -64 2 -30 6 -59 9
-64 5 -9 13 -73 22 -177 3 -38 11 -79 17 -90 5 -11 14 -33 18 -50 4 -16 17
-58 29 -92 22 -60 21 -101 0 -88 -14 9 -40 71 -51 120 -16 74 -37 160 -52 215
-8 30 -18 84 -21 120 -10 97 -13 112 -25 143 -6 16 -11 33 -11 38 0 11 39 3
53 -11z m42 10 c3 -5 1 -10 -4 -10 -6 0 -11 5 -11 10 0 6 2 10 4 10 3 0 8 -4
11 -10z m725 -6 c0 -8 -4 -12 -10 -9 -5 3 -10 10 -10 16 0 5 5 9 10 9 6 0 10
-7 10 -16z m35 6 c-3 -5 -10 -10 -16 -10 -5 0 -9 5 -9 10 0 6 7 10 16 10 8 0
12 -4 9 -10z m69 -17 c-4 -16 -10 -32 -14 -38 -4 -5 -11 -46 -14 -90 -7 -85
-22 -167 -36 -200 -9 -20 -24 -84 -39 -160 -8 -41 -60 -168 -61 -150 0 6 -4
27 -9 47 -5 21 -5 36 -1 33 5 -3 11 9 15 27 7 35 12 50 40 113 10 22 22 76 26
120 11 117 18 166 29 199 5 15 7 32 4 37 -2 5 0 27 6 49 9 33 15 40 36 40 22
0 24 -3 18 -27z m-754 1 c0 -8 -9 -14 -20 -14 -11 0 -20 5 -20 11 0 5 -4 7
-10 4 -5 -3 -10 -2 -10 3 0 5 14 9 30 10 20 0 30 -4 30 -14z m625 7 c3 -5 0
-13 -7 -17 -6 -4 -14 -2 -16 5 -3 9 -7 9 -18 0 -12 -10 -13 -9 -8 5 7 17 39
22 49 7z m-534 -38 c5 -106 3 -181 -3 -177 -3 2 -8 0 -10 -6 -1 -6 -2 17 -1
49 0 33 4 64 7 70 3 5 2 20 -2 33 -5 12 -7 29 -4 37 2 7 -2 17 -9 22 -11 7
-10 9 4 9 13 0 17 -9 18 -37z m313 15 c-10 -13 -15 -20 -10 -16 9 8 36 -9 36
-22 0 -4 -11 -5 -25 -2 -30 5 -36 48 -7 55 9 3 19 5 21 6 2 0 -4 -9 -15 -21z
m121 14 c-14 -10 -17 -52 -5 -67 6 -7 7 -16 2 -19 -5 -3 -9 -31 -11 -63 -1
-32 -4 -66 -7 -77 -5 -14 -3 -16 7 -10 12 6 12 5 0 -9 -8 -11 -11 -28 -7 -48
3 -16 2 -28 -2 -25 -4 2 -7 -19 -7 -47 0 -31 -4 -50 -10 -47 -6 3 -9 12 -8 20
1 8 4 49 7 90 3 41 6 75 7 75 1 0 3 27 4 60 1 33 6 69 10 79 6 15 5 17 -5 11
-10 -6 -12 -2 -7 16 4 13 7 34 7 47 0 14 6 22 18 22 9 0 13 -4 7 -8z m30 -1
c-3 -5 -1 -12 5 -16 11 -7 4 -300 -7 -318 -4 -6 -1 -7 7 -2 7 4 11 4 8 -1 -35
-77 -48 -125 -41 -157 6 -31 -15 -107 -29 -107 -9 0 -2 116 8 132 4 6 8 35 10
66 2 32 6 80 9 107 7 56 15 197 15 263 0 24 7 42 16 42 3 0 3 -4 -1 -9z m-616
-10 c9 -6 10 -11 2 -15 -6 -4 -11 -16 -11 -27 0 -11 5 -17 10 -14 6 3 11 3 11
-2 7 -52 7 -72 0 -95 -6 -17 -6 -28 0 -30 5 -2 11 -38 14 -81 3 -43 7 -83 10
-88 4 -5 -1 -9 -10 -9 -11 0 -15 5 -11 15 3 8 1 26 -4 40 -6 17 -6 25 1 25 6
0 7 6 2 13 -4 6 -6 22 -4 35 1 13 -3 29 -9 37 -6 8 -9 19 -5 24 3 6 2 27 -4
46 -8 29 -7 35 5 35 9 0 13 4 9 10 -3 5 -11 7 -18 4 -9 -3 -12 9 -12 41 0 47
2 50 24 36z m112 -38 c0 -46 1 -78 15 -303 4 -65 2 -92 -5 -85 -13 13 -42 234
-34 264 3 12 0 40 -7 62 -12 34 -11 44 3 74 9 19 19 35 22 35 3 0 6 -21 6 -47z
m93 0 c-9 -56 -9 -77 0 -118 7 -34 -6 -61 -24 -50 -8 5 -10 28 -6 74 3 36 5
83 6 104 0 27 4 37 16 37 13 0 14 -8 8 -47z m66 22 c0 -17 -6 -25 -17 -25 -13
0 -15 -2 -5 -8 7 -5 10 -16 6 -25 -8 -21 -11 -21 -30 -2 -9 9 -11 15 -4 15 6
0 9 4 6 9 -6 10 18 34 26 26 2 -3 5 2 5 10 0 8 -4 12 -8 9 -4 -2 -10 0 -14 6
-3 5 3 10 14 10 16 0 21 -6 21 -25z m262 -47 c2 -88 0 -139 -7 -146 -13 -14
-20 16 -18 81 2 49 0 67 -7 57 -5 -8 -10 -10 -10 -4 0 5 5 15 11 21 8 8 8 17
0 31 -15 28 -14 32 9 32 18 0 20 -7 22 -72z m208 63 c0 -12 -20 -25 -27 -18
-7 7 6 27 18 27 5 0 9 -4 9 -9z m-434 -43 c0 -20 4 -32 14 -35 13 -4 13 -3 0
6 -9 6 -10 11 -3 11 6 0 9 9 6 23 -4 21 -4 22 11 3 9 -12 12 -22 7 -26 -18
-11 3 -28 24 -19 20 8 20 8 0 9 -20 1 -20 1 0 10 30 13 34 12 28 -10 -3 -11
-10 -20 -17 -20 -6 0 -4 -5 4 -10 12 -8 11 -10 -7 -10 -12 0 -25 5 -28 10 -3
6 -15 10 -25 10 -24 0 -31 12 -34 55 -2 23 1 32 9 28 7 -2 12 -18 11 -35z
m-254 17 c3 3 3 -6 0 -20 -2 -14 1 -46 8 -70 10 -36 10 -48 0 -60 -15 -19 -34
-9 -24 14 9 22 5 94 -7 106 -5 5 -9 18 -9 28 0 15 3 17 13 8 8 -6 16 -8 19 -6z
m375 -16 c-3 -11 -1 -19 4 -19 5 0 9 -9 9 -20 0 -11 -4 -20 -10 -20 -5 0 -6 8
-3 18 6 15 5 16 -11 2 -17 -14 -18 -13 -12 18 7 31 -5 45 -19 22 -8 -13 -35
-13 -35 -1 0 12 51 29 68 23 8 -3 11 -13 9 -23z m269 20 c3 -5 0 -17 -7 -26
-8 -9 -13 -40 -13 -74 0 -44 -3 -59 -14 -59 -9 0 -12 6 -8 16 3 8 2 12 -4 9
-6 -3 -10 1 -10 9 0 9 4 16 8 16 7 0 11 19 15 80 1 16 -3 24 -11 22 -8 -1 -11
1 -9 6 8 11 46 12 53 1z m-793 -115 c5 -9 -11 -24 -27 -24 -1 0 -2 17 -2 38 1
20 -3 48 -8 61 -6 16 -5 21 3 17 6 -4 12 -1 12 6 1 7 5 -9 8 -37 4 -27 10 -55
14 -61z m830 86 c3 -11 1 -23 -4 -26 -5 -3 -9 6 -9 20 0 31 6 34 13 6z m110
-11 c-8 -17 -13 -43 -11 -59 3 -23 1 -28 -14 -27 -20 1 -24 12 -7 23 7 4 9 22
6 45 -6 43 -5 44 21 46 19 2 19 0 5 -28z m-1046 -52 c10 -47 10 -63 1 -68 -15
-9 -28 -2 -28 14 0 7 4 6 11 -3 15 -22 2 57 -15 91 -10 21 -11 29 -2 32 17 6
19 1 33 -66z m1144 47 c-1 -10 -4 -40 -5 -66 -1 -38 -4 -46 -19 -45 -13 1 -17
7 -12 22 3 11 8 42 12 68 3 28 10 46 17 44 6 -2 9 -13 7 -23z m-235 1 c-3 -9
1 -18 9 -21 10 -4 12 -12 4 -31 -5 -13 -7 -29 -3 -34 3 -5 1 -9 -4 -9 -12 0
-21 37 -17 70 2 14 4 28 4 33 1 4 4 7 7 7 3 0 3 -7 0 -15z m-566 -5 c0 -5 -4
-10 -10 -10 -5 0 -10 5 -10 10 0 6 5 10 10 10 6 0 10 -4 10 -10z m149 -32 c1
-4 -6 -5 -14 -2 -21 8 -19 -3 5 -28 17 -19 20 -19 20 -5 0 13 9 17 45 17 34 0
45 -4 45 -16 0 -8 -4 -12 -10 -9 -20 12 -50 14 -50 2 0 -8 -3 -8 -9 1 -5 9
-10 1 -14 -25 -10 -57 -8 -91 5 -99 7 -4 8 -3 4 4 -4 7 -2 12 3 12 6 0 11 -7
11 -15 0 -18 -21 -20 -39 -2 -10 10 -11 9 -6 -5 5 -13 2 -18 -9 -18 -13 0 -14
5 -6 26 22 56 20 97 -5 130 -20 26 -22 33 -10 38 8 3 15 13 16 23 0 16 1 16 9
-2 5 -11 9 -23 9 -27z m195 1 c-9 -16 -10 -99 -1 -102 16 -5 0 -37 -18 -37 -9
0 -13 5 -10 10 3 6 1 10 -4 10 -16 0 -13 47 4 80 12 23 13 30 3 31 -10 0 -10
2 -1 5 7 3 9 13 6 22 -6 14 -5 15 9 2 9 -8 14 -18 12 -21z m-254 -15 c0 -8 5
-14 11 -14 6 0 8 -7 5 -16 -3 -8 -2 -12 4 -9 11 7 25 -39 15 -54 -10 -17 -25
-13 -19 4 4 8 2 21 -3 28 -6 6 -13 21 -15 32 -3 11 -9 29 -14 39 -5 14 -4 17
4 12 7 -4 12 -14 12 -22z m215 -3 c3 -5 1 -12 -5 -16 -5 -3 -10 1 -10 9 0 18
6 21 15 7z m-22 -81 c3 -33 1 -58 -6 -65 -9 -9 -12 8 -13 67 0 86 12 85 19 -2z
m-49 44 c22 -8 10 -24 -17 -23 -20 1 -21 2 -2 7 20 5 20 5 0 13 -11 4 -15 8
-8 8 6 1 18 -2 27 -5z m-462 -58 c1 -22 -1 -41 -7 -42 -6 -2 -11 18 -12 47 -2
59 13 54 19 -5z m904 9 c-1 -28 -6 -45 -13 -45 -9 0 -11 10 -7 33 12 71 22 77
20 12z m-96 26 c0 -6 -4 -12 -9 -15 -4 -3 -12 -42 -15 -86 -4 -44 -12 -80 -17
-80 -6 0 -8 8 -5 18 3 10 8 48 11 86 3 38 8 73 11 77 7 12 24 11 24 0z m-486
-35 c-3 -8 2 -17 13 -20 15 -4 15 -5 -2 -3 -13 1 -21 11 -23 26 -2 14 0 21 7
17 5 -4 8 -13 5 -20z m151 14 c-3 -5 -12 -10 -20 -10 -8 0 -17 5 -20 10 -4 6
5 10 20 10 15 0 24 -4 20 -10z m531 -2 c-2 -7 -7 -22 -12 -33 -4 -11 -8 -37
-8 -57 -1 -26 -5 -38 -15 -38 -10 0 -12 8 -6 33 3 17 9 49 12 70 3 20 11 37
18 37 7 0 12 -6 11 -12z m-1090 -50 c11 -69 11 -78 1 -80 -5 -2 -10 19 -12 45
-2 28 -10 56 -20 68 -17 18 -17 19 2 19 17 0 22 -9 29 -52z m229 44 c6 -4 11
-20 11 -37 1 -16 3 -46 5 -65 3 -25 0 -35 -10 -35 -9 0 -14 12 -15 32 -1 17 2
29 6 27 11 -7 -4 70 -16 78 -6 5 -7 8 -1 8 6 0 15 -4 20 -8z m306 -17 c11 4
19 2 19 -4 0 -6 -15 -10 -33 -8 -28 2 -33 6 -29 21 4 17 6 17 14 2 6 -11 16
-15 29 -11z m304 -45 c0 -86 -11 -93 -14 -10 -2 50 3 80 12 80 1 0 2 -31 2
-70z m-504 19 c-9 -23 -9 -23 -17 -4 -4 11 -9 24 -12 29 -3 5 0 6 6 2 7 -4 12
-2 12 5 0 9 3 10 10 3 7 -7 7 -19 1 -35z m347 9 c-7 -31 -43 -49 -51 -25 -3 9
21 27 51 36 1 1 1 -5 0 -11z m-267 -8 c5 0 9 -7 9 -15 0 -8 -7 -15 -16 -15 -8
0 -12 4 -9 10 3 6 -1 7 -9 4 -11 -4 -16 0 -16 11 0 12 5 15 16 11 9 -3 20 -6
25 -6z m144 -24 c-2 -14 -6 -30 -11 -37 -4 -8 -3 -9 4 -5 7 4 12 4 13 -1 0 -4
2 -24 5 -43 5 -51 -1 -63 -27 -50 -11 6 -18 18 -15 25 3 8 0 16 -7 18 -7 2 -8
8 -4 13 4 5 11 3 15 -3 5 -7 13 -9 21 -4 11 7 11 10 0 17 -8 5 -18 9 -23 9 -9
0 -17 65 -9 78 2 4 12 7 22 7 13 0 18 -7 16 -24z m-459 -4 c-4 -10 1 -27 9
-38 19 -25 19 -40 0 -24 -13 11 -14 10 -9 -5 5 -13 4 -16 -5 -11 -7 5 -10 14
-7 21 2 7 -2 24 -9 39 -8 15 -10 24 -5 21 6 -4 10 -1 10 4 0 6 5 11 11 11 6 0
8 -8 5 -18z m894 12 c0 -9 -34 -65 -45 -74 -19 -16 -19 -10 -1 25 8 15 12 33
9 41 -3 8 3 12 16 11 12 -1 21 -2 21 -3z m-380 -14 c0 -5 -2 -10 -4 -10 -3 0
-8 5 -11 10 -3 6 -1 10 4 10 6 0 11 -4 11 -10z m-270 -21 c0 -5 -7 -9 -15 -9
-15 0 -20 12 -9 23 8 8 24 -1 24 -14z m64 -1 c21 -34 25 -98 5 -98 -6 0 -9 7
-6 15 4 8 2 17 -3 20 -5 3 -7 12 -4 19 3 8 0 17 -6 21 -9 6 -9 10 1 16 11 7
10 9 -3 9 -10 0 -18 5 -18 10 0 18 19 11 34 -12z m96 -14 c0 -8 -4 -14 -8 -14
-4 0 -8 9 -8 19 0 11 4 17 8 15 4 -3 8 -12 8 -20z m157 20 c-3 -3 -12 -4 -19
-1 -8 3 -5 6 6 6 11 1 17 -2 13 -5z m-207 -16 c0 6 3 12 8 12 4 0 8 -27 9 -60
1 -53 -1 -59 -14 -49 -9 8 -13 24 -11 41 3 16 1 31 -4 34 -4 3 -8 13 -8 22 0
15 2 15 10 2 6 -10 10 -11 10 -2z m150 0 c0 -9 4 -8 10 2 13 20 12 6 -1 -24
-9 -18 -9 -33 0 -56 9 -27 9 -30 -3 -21 -11 9 -15 9 -19 -1 -3 -7 -5 15 -4 49
1 35 5 63 10 63 4 0 7 -6 7 -12z m65 -15 c-4 -10 -8 -24 -8 -30 0 -7 -3 -13
-7 -13 -4 0 -7 -7 -7 -15 0 -8 4 -15 9 -15 5 0 6 -4 3 -10 -3 -5 -11 -10 -16
-10 -6 0 -8 4 -4 9 3 5 1 12 -5 16 -5 3 -8 16 -6 28 3 12 5 30 5 40 1 10 9 17
22 17 16 0 19 -4 14 -17z m-322 -40 c3 -30 1 -43 -7 -43 -8 0 -12 15 -10 43 0
23 2 44 3 46 3 11 9 -8 14 -46z m-313 -5 c0 -18 7 -46 15 -62 18 -35 19 -31
-3 -33 -14 -1 -18 6 -19 33 -1 19 -9 46 -18 60 -9 15 -12 23 -6 20 6 -4 11 -2
11 3 0 6 5 11 10 11 6 0 10 -15 10 -32z m467 26 c-3 -3 -12 -4 -19 -1 -8 3 -5
6 6 6 11 1 17 -2 13 -5z m473 -4 c0 -5 -4 -10 -10 -10 -5 0 -10 5 -10 10 0 6
5 10 10 10 6 0 10 -4 10 -10z m70 -2 c0 -9 4 -8 10 2 5 8 10 10 10 4 0 -6 -7
-17 -15 -24 -8 -7 -15 -28 -15 -47 0 -24 -4 -32 -12 -27 -7 5 -9 2 -5 -9 4
-11 2 -14 -9 -10 -17 6 -17 13 1 37 8 11 15 35 15 53 0 18 5 33 10 33 6 0 10
-6 10 -12z m-222 -38 c-5 -17 -7 -43 -4 -58 l7 -27 -20 25 c-13 16 -16 27 -9
31 6 4 8 16 5 28 -3 12 -1 19 4 15 5 -3 9 2 9 11 0 9 4 14 9 10 6 -3 6 -17 -1
-35z m-578 13 c0 -15 2 -16 10 -3 8 12 10 9 10 -13 0 -16 5 -37 10 -47 6 -11
6 -21 1 -24 -8 -5 -16 6 -20 27 0 4 -7 23 -15 42 -8 19 -11 35 -5 35 5 0 9 -8
9 -17z m261 5 c1 -7 0 -17 -1 -23 -1 -5 -2 -29 -2 -52 0 -24 -3 -43 -7 -43
-11 0 -13 23 -9 93 3 34 17 53 19 25z m449 -14 c0 -8 -4 -14 -8 -14 -5 0 -13
-12 -19 -27 -11 -27 -11 -27 -6 7 3 19 7 41 9 48 5 17 24 6 24 -14z m50 8 c0
-10 -6 -27 -14 -38 -8 -11 -17 -38 -21 -60 -6 -35 -19 -70 -46 -126 -5 -10 -9
-25 -9 -33 0 -17 -17 -50 -40 -78 -12 -16 -12 -19 0 -27 24 -15 34 -11 19 7
-12 15 -12 16 3 11 10 -4 19 -1 22 8 3 8 11 14 18 14 8 0 9 -3 3 -8 -6 -4 -19
-24 -30 -44 -11 -21 -26 -38 -33 -38 -12 0 -12 3 -1 16 10 13 10 17 -2 25 -10
6 -16 1 -23 -21 -5 -17 -15 -30 -22 -30 -10 0 -10 6 2 28 7 15 14 32 14 39 0
6 18 45 40 87 22 41 40 86 40 98 0 13 7 32 15 42 8 11 15 33 15 48 0 16 4 36
9 46 5 9 12 25 15 35 7 22 26 22 26 -1z m-863 -58 c7 -32 18 -72 23 -88 5 -16
7 -33 3 -39 -3 -6 -1 -7 5 -3 8 5 12 0 12 -13 0 -11 8 -25 18 -30 9 -6 12 -11
5 -11 -7 0 -10 -7 -7 -15 4 -8 2 -15 -3 -15 -11 0 1 -93 18 -137 7 -21 7 -25
-1 -17 -17 17 -37 116 -33 161 3 27 -1 46 -11 55 -8 9 -18 33 -22 54 -3 21
-11 45 -17 52 -6 8 -6 12 1 12 7 0 3 18 -8 46 -23 53 -24 57 -8 52 6 -2 17
-31 25 -64z m82 34 c8 -21 8 -35 1 -42 -7 -7 -10 -3 -10 13 0 12 -5 31 -10 42
-6 11 -7 19 -1 19 5 0 14 -14 20 -32z m628 7 c-7 -14 -16 -25 -20 -25 -5 0 -6
3 -4 8 2 4 7 15 10 25 4 9 11 17 16 17 5 0 4 -11 -2 -25z m-461 8 c-3 -4 4
-13 16 -20 17 -9 19 -12 7 -13 -19 0 -42 24 -32 33 3 4 9 7 11 7 3 0 2 -3 -2
-7z m169 -36 c6 0 12 -8 12 -17 1 -13 -5 -15 -30 -12 -26 4 -28 6 -12 12 19 7
19 7 0 19 -20 12 -20 12 0 6 11 -4 25 -8 30 -8z m-197 -22 c8 -18 20 -25 39
-26 24 0 25 -2 9 -8 -19 -7 -19 -8 1 -13 18 -5 22 -13 21 -47 0 -38 -2 -41
-22 -36 -17 5 -18 4 -6 -5 13 -10 13 -11 0 -7 -16 4 -15 49 1 55 15 6 10 22
-6 22 -9 0 -16 -10 -16 -27 -2 -28 -2 -28 -7 -3 l-5 25 -8 -25 c-7 -21 -8 -20
-4 8 2 17 0 32 -5 32 -6 0 -10 11 -10 24 0 14 -4 28 -10 31 -14 9 -12 25 3 25
8 0 19 -11 25 -25z m62 -1 c0 -15 -10 -17 -34 -8 -27 10 -19 32 9 26 14 -2 25
-11 25 -18z m260 16 c0 -9 -31 -30 -44 -30 -14 0 -4 29 12 33 29 8 32 7 32 -3z
m40 -9 c-5 -11 -10 -29 -10 -40 0 -12 -4 -21 -10 -21 -5 0 -14 -15 -19 -32 -7
-27 -9 -28 -10 -10 -1 13 4 33 11 45 21 39 17 52 -6 22 -13 -16 -22 -36 -19
-45 3 -10 -1 -8 -11 4 -9 11 -16 15 -16 9 0 -7 5 -15 10 -18 6 -4 7 -11 4 -17
-5 -7 -2 -8 7 -3 11 6 12 5 2 -6 -18 -18 -16 -32 3 -25 8 3 12 2 9 -3 -3 -5 0
-13 6 -17 7 -4 1 -12 -17 -20 l-29 -12 27 -1 c14 -1 28 5 31 12 2 6 8 9 12 5
4 -4 0 -14 -8 -23 -9 -8 -14 -22 -10 -30 3 -8 -1 -32 -9 -53 -8 -20 -14 -44
-13 -52 0 -8 -5 -21 -12 -28 -15 -16 -17 -36 -3 -27 17 11 11 -7 -7 -21 -11
-8 -13 -13 -6 -14 7 0 10 -7 6 -16 -9 -23 -26 -1 -30 40 -3 30 -1 35 13 29 12
-4 15 -3 10 5 -4 7 -2 12 3 12 6 0 11 4 11 9 0 5 -8 8 -17 7 -10 0 -19 7 -21
17 -2 10 3 17 13 17 9 0 13 5 10 10 -4 6 -11 8 -16 4 -11 -7 -1 46 12 60 4 5
3 19 -2 33 -6 17 -5 25 4 28 39 12 41 13 21 14 -18 1 -21 8 -23 52 -2 43 1 51
13 46 9 -3 18 -2 21 3 4 6 -4 10 -17 11 -18 1 -17 3 9 10 18 5 37 18 43 29 6
11 17 20 26 20 11 0 12 -4 4 -19z m120 -1 c0 -5 -2 -10 -4 -10 -3 0 -8 5 -11
10 -3 6 -1 10 4 10 6 0 11 -4 11 -10z m-515 -96 c6 -54 5 -57 -9 -40 -20 25
-30 79 -21 113 7 26 8 27 15 7 5 -11 11 -47 15 -80z m135 39 c3 -99 0 -157 -9
-166 -4 -4 -8 15 -7 42 1 28 5 51 10 51 5 0 4 6 -1 13 -13 15 -23 108 -12 101
5 -3 9 0 9 5 0 6 2 11 4 11 2 0 5 -26 6 -57z m152 43 c6 4 6 -2 -1 -14 -6 -11
-12 -36 -13 -54 -1 -25 -3 -21 -7 17 -6 48 -2 83 7 57 2 -7 8 -9 14 -6z m178
4 c0 -5 -4 -10 -10 -10 -5 0 -10 5 -10 10 0 6 5 10 10 10 6 0 10 -4 10 -10z
m-540 -4 c0 -3 -4 -8 -10 -11 -5 -3 -10 -1 -10 4 0 6 5 11 10 11 6 0 10 -2 10
-4z m308 -18 c-6 -18 -48 -19 -48 -2 0 8 11 14 26 14 16 0 24 -5 22 -12z m372
1 c0 -4 -4 -10 -9 -14 -5 -3 -12 -19 -16 -35 -4 -17 -10 -30 -14 -30 -4 0 -3
20 3 43 5 24 16 44 23 44 7 0 13 -4 13 -8z m-353 -21 c2 -18 0 -20 -7 -8 -6 9
-10 10 -10 3 0 -6 4 -14 10 -18 5 -3 6 -13 3 -21 -5 -14 -8 -13 -17 4 -8 16
-15 19 -26 12 -12 -8 -12 -10 4 -10 11 0 17 -3 13 -6 -3 -4 -14 -3 -24 0 -16
6 -13 11 17 36 19 16 35 30 35 30 1 0 2 -10 2 -22z m225 -23 c-7 -14 -12 -37
-12 -50 0 -24 -10 -32 -23 -18 -4 3 -2 11 3 18 8 10 16 48 19 90 1 5 6 4 13
-3 9 -9 9 -18 0 -37z m-739 9 c-1 -10 7 -31 18 -46 20 -27 18 -48 -2 -48 -6 0
-8 4 -5 9 3 5 -1 22 -9 37 -8 16 -15 35 -15 42 0 7 -4 10 -10 7 -11 -7 -14 8
-3 19 12 11 28 0 26 -20z m207 -8 c0 -13 6 -39 14 -57 8 -19 12 -46 9 -61 -3
-15 2 -41 11 -59 9 -18 14 -34 11 -37 -5 -5 -35 60 -35 76 0 5 -7 15 -15 22
-14 12 -14 15 0 30 11 12 13 20 6 25 -6 3 -11 17 -11 30 0 13 -4 26 -10 30 -5
3 -7 12 -4 20 8 21 24 8 24 -19z m746 22 c4 -7 3 -10 -1 -5 -9 8 -35 -55 -35
-85 0 -10 -4 -18 -9 -18 -20 0 -22 22 -3 53 10 17 17 40 15 50 -5 20 22 24 33
5z m-518 -33 c-3 -13 0 -26 5 -28 6 -2 7 -9 3 -15 -14 -22 -24 -12 -22 21 2
17 -2 35 -8 39 -7 5 -4 8 8 8 14 0 17 -6 14 -25z m207 -30 c0 -29 -4 -45 -12
-45 -9 0 -11 10 -7 33 12 70 20 75 19 12z m-140 -5 c12 -19 -5 -31 -27 -19
-12 7 -18 7 -14 1 3 -6 0 -13 -6 -15 -7 -3 1 -4 18 -2 29 3 30 2 30 -35 -1
-21 -5 -42 -10 -47 -5 -5 -6 -3 -2 5 4 6 3 12 -3 12 -5 0 -12 -6 -14 -12 -4
-10 -8 -9 -16 2 -6 9 -6 19 -1 26 6 6 7 14 3 18 -4 4 1 4 11 0 14 -5 15 -9 4
-16 -10 -8 -10 -9 1 -6 29 8 20 24 -21 40 -24 9 -35 17 -26 17 9 1 20 10 23
21 7 21 39 27 50 10z m35 -11 c0 8 2 12 5 9 8 -7 -5 -38 -16 -38 -5 0 -9 10
-9 23 0 18 2 19 10 7 8 -12 10 -12 10 -1z m300 -1 c0 -4 -4 -8 -10 -8 -5 0
-13 -12 -16 -27 -4 -16 -18 -44 -31 -63 -12 -19 -23 -43 -23 -52 0 -10 -4 -18
-10 -18 -5 0 -10 5 -10 10 0 15 31 74 43 81 5 4 11 15 12 25 5 37 17 61 31 61
8 0 14 -4 14 -9z m-534 -29 c1 -5 2 -16 3 -24 0 -8 7 -12 16 -9 12 5 13 1 3
-27 -14 -43 -23 -53 -14 -16 5 20 2 29 -9 34 -9 3 -14 11 -11 19 3 7 0 14 -6
16 -7 3 -8 10 -4 17 8 12 20 7 22 -10z m54 1 c-13 -8 -12 -10 5 -10 14 0 16
-3 8 -11 -12 -12 -53 -3 -53 11 0 5 8 11 18 13 30 8 37 7 22 -3z m360 -11 c0
7 5 9 11 6 7 -5 5 -13 -6 -25 -9 -10 -17 -36 -18 -58 -1 -28 -5 -38 -14 -35
-16 6 -16 2 1 51 9 25 11 44 5 47 -5 4 -9 11 -9 17 0 7 6 6 15 -2 11 -9 15 -9
15 -1z m-677 -6 c3 6 6 3 6 -8 1 -11 7 -32 15 -47 12 -23 12 -27 0 -32 -9 -3
-12 -1 -9 4 3 6 1 10 -5 10 -6 0 -9 3 -7 8 8 13 -12 52 -28 52 -8 0 -15 5 -15
10 0 7 6 7 19 0 14 -7 21 -6 24 3z m402 -3 c3 -5 -1 -10 -9 -10 -8 0 -18 5
-21 10 -3 6 1 10 9 10 8 0 18 -4 21 -10z m101 -37 c-11 -11 -24 9 -18 29 l5
22 9 -24 c5 -12 6 -25 4 -27z m348 31 c7 -18 -18 -64 -34 -64 -6 0 -3 11 6 25
9 14 14 32 10 40 -3 8 -1 15 3 15 5 0 12 -7 15 -16z m28 9 c-6 -2 -9 -10 -6
-15 4 -7 2 -8 -5 -4 -13 9 -5 26 12 25 9 0 8 -2 -1 -6z m-232 -28 c0 -8 -4
-15 -8 -15 -5 0 -9 7 -9 15 0 8 4 15 9 15 4 0 8 -7 8 -15z m-410 -48 c0 -7 5
-18 12 -25 7 -7 9 -12 4 -12 -4 0 0 -7 8 -16 18 -18 21 -44 5 -44 -5 0 -7 -6
-3 -12 5 -8 1 -8 -10 1 -11 9 -16 24 -13 38 2 13 0 23 -4 23 -5 0 -6 6 -3 13
3 8 -2 20 -10 27 -9 7 -14 16 -11 20 3 5 1 11 -5 15 -5 3 -10 11 -10 17 0 7 9
2 20 -10 11 -12 20 -27 20 -35z m-110 6 c8 -21 17 -42 19 -47 2 -5 -2 -7 -9
-4 -7 2 -15 15 -17 28 -2 14 -8 29 -13 34 -12 12 -13 26 -2 26 4 0 14 -17 22
-37z m30 4 c0 -18 -2 -19 -10 -7 -13 20 -13 43 0 35 6 -3 10 -16 10 -28z m167
9 c-3 -7 1 -23 9 -35 13 -18 13 -21 0 -21 -8 0 -23 -3 -33 -7 -16 -6 -16 -5
-4 10 11 13 11 20 1 32 -14 17 -5 35 17 35 9 0 13 -6 10 -14z m308 -6 c3 -6
-1 -13 -9 -16 -9 -3 -16 -10 -16 -16 0 -5 4 -6 10 -3 6 3 7 -1 4 -9 -3 -9 -10
-16 -14 -16 -4 0 -5 -11 -2 -25 2 -15 0 -25 -8 -25 -7 0 -9 8 -5 23 6 21 6 21
-9 3 -9 -11 -16 -15 -16 -9 0 7 6 18 13 25 6 7 12 18 13 23 5 43 26 67 39 45z
m-232 -12 c-2 -5 -3 -22 -3 -40 0 -41 -11 -30 -12 12 -1 26 -3 29 -11 15 -8
-14 -11 -15 -18 -4 -14 22 -11 26 19 25 15 -1 26 -4 25 -8z m97 6 c0 -3 -6
-12 -14 -20 -11 -10 -15 -11 -19 -1 -2 6 -8 9 -12 5 -4 -4 -2 -15 6 -25 12
-15 12 -16 -1 -8 -8 5 -19 10 -25 10 -5 0 -11 3 -12 8 -7 18 -1 26 20 30 36 7
57 7 57 1z m-460 -46 c0 -9 4 -8 10 2 8 13 10 12 10 -3 0 -10 3 -16 8 -14 4 3
8 -6 8 -19 2 -29 -12 -32 -21 -4 -3 11 -10 20 -15 20 -4 0 -10 7 -14 15 -3 8
-1 15 4 15 6 0 10 -6 10 -12z m598 -51 c-7 -29 -15 -42 -20 -34 -8 14 0 56 15
75 16 21 18 7 5 -41z m-408 13 c0 -10 3 -25 6 -34 3 -9 1 -16 -5 -16 -6 0 -11
11 -11 24 0 14 -4 28 -10 31 -16 10 -12 25 5 19 8 -4 15 -14 15 -24z m113 23
c-7 -2 -19 -2 -25 0 -7 3 -2 5 12 5 14 0 19 -2 13 -5z m141 -14 c8 -8 1 -9
-24 -6 -19 2 -27 2 -18 0 24 -6 19 -40 -6 -39 -15 1 -20 9 -21 33 -1 29 1 31
29 27 16 -2 34 -8 40 -15z m-324 -3 c0 -8 10 -22 22 -30 12 -9 19 -18 15 -22
-3 -3 -17 7 -31 22 -27 31 -32 44 -16 44 6 0 10 -6 10 -14z m184 -7 c-3 -5
-14 -9 -25 -9 -11 0 -17 -4 -14 -10 3 -5 2 -10 -3 -10 -5 0 -9 10 -9 23 0 20
4 23 28 19 16 -2 26 -8 23 -13z m36 11 c0 -5 -5 -10 -11 -10 -5 0 -7 5 -4 10
3 6 8 10 11 10 2 0 4 -4 4 -10z m330 5 c0 -3 -9 -15 -20 -27 -20 -21 -27 -49
-12 -47 25 4 42 -3 42 -18 0 -11 -3 -14 -8 -7 -10 15 -62 27 -62 14 0 -5 -4
-10 -9 -10 -11 0 4 32 34 72 18 25 35 36 35 23z m-308 -52 l-6 -28 -6 25 c-7
27 -3 43 9 35 5 -2 6 -17 3 -32z m84 -12 c1 -40 1 -40 -22 -24 -27 17 -32 28
-9 19 8 -3 14 -2 14 2 -3 19 2 42 9 42 4 0 8 -18 8 -39z m-106 4 c0 -14 5 -25
10 -25 18 0 23 -29 7 -45 -20 -19 -33 -20 -17 0 6 8 9 19 5 26 -6 8 -9 8 -15
-1 -4 -7 -7 6 -6 29 1 44 16 58 16 16z m201 -31 c-15 -54 -22 -63 -59 -70 -28
-6 -32 -4 -32 15 0 13 4 19 10 16 6 -4 8 -10 5 -15 -3 -4 7 -5 22 -1 31 8 46
51 31 86 -9 20 -9 20 8 0 16 -20 16 -20 11 4 -4 16 -3 21 4 14 7 -7 7 -23 0
-49z m-751 17 c0 -5 3 -23 6 -40 5 -21 3 -31 -6 -31 -7 0 -10 6 -7 13 7 18
-10 57 -25 57 -9 0 -9 -3 2 -10 13 -8 12 -10 -2 -10 -21 0 -21 -1 -8 -36 9
-24 9 -25 -5 -14 -8 7 -15 19 -15 27 0 11 -15 14 -69 12 -37 -1 -74 1 -82 5
-8 5 -8 2 2 -6 20 -16 32 -61 16 -55 -7 3 -11 10 -9 17 1 7 -5 18 -14 25 -30
22 -6 34 64 32 37 0 73 2 79 6 6 4 14 1 16 -5 3 -7 6 -4 6 8 1 11 4 24 7 27 8
8 44 -10 44 -22z m267 -6 c2 -27 1 -28 -5 -6 -8 26 -35 43 -30 19 2 -7 6 -15
10 -18 3 -3 4 -26 1 -53 -4 -35 -10 -47 -22 -47 -12 0 -13 2 -3 9 10 6 12 24
9 64 -5 59 -2 69 23 65 9 -2 16 -15 17 -33z m673 26 c0 -5 3 -16 6 -24 3 -10
0 -15 -12 -14 -11 1 -20 -8 -25 -23 l-7 -25 -1 26 c-1 15 6 32 14 39 8 7 12
16 9 21 -3 5 0 9 5 9 6 0 11 -4 11 -9z m-736 -16 c2 -6 -16 -10 -45 -10 -27 0
-49 5 -49 10 0 13 88 13 94 0z m136 10 c0 -2 -9 -9 -20 -15 -12 -6 -20 -7 -20
-1 0 5 8 12 18 14 9 3 18 5 20 6 1 0 2 -1 2 -4z m177 -29 c-2 -26 -7 -36 -23
-39 -14 -2 -20 2 -21 15 -1 10 3 18 8 18 6 0 7 9 4 20 -5 15 -2 20 14 20 16 0
19 -6 18 -34z m-83 0 c-3 -13 0 -35 6 -48 11 -20 9 -19 -16 6 -24 25 -25 29
-10 38 9 5 14 13 11 19 -4 5 -1 9 5 9 6 0 8 -10 4 -24z m166 14 c0 -5 -4 -10
-10 -10 -5 0 -10 5 -10 10 0 6 5 10 10 10 6 0 10 -4 10 -10z m-500 -10 c0 -5
-21 -10 -46 -10 -27 0 -43 4 -39 10 3 6 24 10 46 10 21 0 39 -4 39 -10z m294
-2 c-3 -4 -9 -8 -15 -8 -5 0 -9 4 -9 8 0 5 7 9 15 9 8 0 12 -4 9 -9z m840 -10
c15 -18 16 -20 2 -15 -9 4 -16 2 -16 -3 0 -14 33 -13 47 1 7 7 20 8 34 3 13
-4 30 -7 38 -5 7 1 10 -2 7 -7 -3 -6 -38 -9 -76 -8 -39 1 -70 -2 -70 -6 0 -5
-8 -8 -17 -9 -10 0 -2 -7 17 -14 45 -17 50 -18 50 -2 0 9 15 14 46 15 25 1 54
7 65 12 14 8 19 7 20 -2 0 -10 2 -10 6 0 2 6 9 10 14 6 13 -7 11 -44 -2 -44
-5 0 -7 5 -4 10 4 6 -13 10 -44 10 -27 0 -52 -4 -56 -10 -3 -5 -12 -7 -20 -3
-9 3 -15 -1 -15 -8 0 -11 -21 -14 -91 -14 -50 1 -93 -3 -95 -7 -3 -4 10 -8 28
-9 42 -1 76 -13 61 -22 -7 -4 -23 -2 -37 4 -14 7 -29 9 -33 6 -3 -4 -7 -34 -9
-67 -2 -33 -6 -65 -10 -72 -5 -7 1 -9 20 -6 14 3 26 1 26 -5 0 -5 6 -4 14 2 8
7 26 9 43 6 21 -5 24 -4 13 4 -10 7 -11 11 -3 11 7 0 17 -9 23 -20 11 -20 9
-21 -70 -18 -63 2 -83 0 -90 -12 -5 -8 -10 -10 -10 -5 0 6 -23 10 -52 10 -37
0 -52 4 -55 15 -3 9 -1 11 4 5 11 -14 70 -19 78 -6 3 6 15 11 26 11 13 0 18 4
13 12 -4 6 -3 8 3 5 6 -4 9 17 9 53 -1 33 4 62 9 63 20 7 -19 39 -42 34 -39
-7 -36 11 4 28 24 10 39 12 41 5 2 -5 8 -10 13 -10 6 0 7 6 4 13 -4 6 0 4 8
-6 9 -11 18 -14 21 -8 4 6 21 8 39 6 22 -3 25 -2 11 3 -21 7 -21 7 -3 50 20
47 36 52 63 20z m-849 -46 c-9 -2 -28 6 -41 19 -35 33 -10 42 27 10 24 -21 26
-27 14 -29z m75 31 c0 -22 -2 -25 -10 -13 -13 20 -13 40 0 40 6 0 10 -12 10
-27z m330 7 c0 -4 -7 -13 -15 -20 -13 -11 -13 -14 2 -26 17 -12 16 -13 -4 -9
-15 2 -23 -1 -23 -10 0 -10 12 -12 48 -9 26 2 53 6 60 9 6 2 12 -2 12 -9 0
-15 -81 -25 -121 -16 -32 8 -90 0 -83 -11 3 -5 10 -6 16 -3 7 4 8 2 4 -4 -11
-18 -24 -14 -31 8 -7 23 -35 27 -35 5 0 -19 -10 -19 -46 0 -16 8 -51 15 -77
15 -27 0 -46 4 -42 9 3 5 22 8 43 5 l37 -4 -34 11 c-27 8 -31 13 -20 20 8 5
23 8 34 8 20 0 20 -1 0 -8 -17 -7 -17 -8 8 -15 16 -3 32 -4 38 -1 5 4 8 1 7
-5 -2 -6 6 -17 17 -25 17 -10 23 -10 38 6 9 11 13 19 8 19 -6 0 -13 -4 -16
-10 -3 -5 -11 -10 -16 -10 -6 0 -8 4 -5 9 4 5 0 12 -6 14 -7 3 1 6 17 6 22 1
26 4 16 10 -8 5 -21 7 -30 4 -13 -4 -13 -3 -2 5 8 6 11 17 7 27 -5 13 -2 16
10 11 8 -3 20 -6 25 -6 5 0 9 -4 9 -10 0 -5 -7 -10 -15 -10 -12 0 -11 -4 5
-20 11 -11 20 -24 20 -28 0 -5 10 -8 23 -6 12 1 31 3 42 3 15 1 25 13 35 39 8
20 13 40 12 44 -1 4 5 5 13 2 8 -4 15 -10 15 -14z m270 11 c0 -5 -22 -8 -49
-8 -28 0 -48 4 -45 9 7 11 94 10 94 -1z m-860 -32 c0 -21 -7 -22 -98 -13 -35
4 -59 11 -56 16 4 5 16 7 28 4 11 -2 31 1 44 8 33 18 82 9 82 -15z m194 -41
c26 -1 46 -6 46 -12 0 -7 -23 -10 -62 -9 -35 1 -78 2 -96 2 -18 1 -31 5 -28 9
3 5 23 7 46 6 34 -2 39 0 29 12 -7 8 -14 12 -17 9 -5 -4 -32 40 -32 53 0 3 15
-11 34 -32 29 -33 39 -38 80 -38z m766 57 c0 -6 -20 -10 -45 -10 -41 0 -52 4
-41 16 9 9 86 3 86 -6z m-310 -2 c-1 -21 -30 -45 -47 -39 -17 7 -16 9 6 27 24
20 41 25 41 12z m96 -20 c-6 -40 -7 -41 -15 -13 -4 15 -3 28 3 32 16 11 17 10
12 -19z m-1091 7 c-4 -6 8 -10 29 -10 34 0 82 -31 69 -44 -3 -3 -1 -11 5 -18
14 -17 20 -102 7 -105 -5 -1 -8 10 -7 24 2 14 -1 45 -8 68 -9 33 -18 44 -44
53 -18 7 -46 12 -62 12 -28 1 -28 1 -10 15 23 17 30 19 21 5z m58 3 c-7 -2
-19 -2 -25 0 -7 3 -2 5 12 5 14 0 19 -2 13 -5z m981 -19 c3 -8 10 -12 16 -9 5
3 10 1 10 -4 0 -14 -27 -14 -35 -1 -4 7 -13 7 -26 0 -23 -13 -25 -7 -3 14 20
20 30 20 38 0z m141 7 c3 -5 1 -12 -5 -16 -14 -9 -52 4 -45 16 8 12 42 12 50
0z m-1141 -37 c9 -24 7 -36 -6 -32 -12 4 -19 48 -7 48 4 0 10 -7 13 -16z m183
0 c2 -5 -22 -9 -52 -9 -51 0 -63 4 -50 17 9 9 99 2 102 -8z m98 2 c18 7 30
-17 14 -27 -8 -5 -23 -8 -34 -8 -16 1 -16 2 5 9 23 7 23 8 -10 10 -19 1 -40 2
-46 1 -6 -1 -11 5 -11 13 0 10 9 11 35 5 19 -4 40 -5 47 -3z m817 -3 c-6 -2
-10 -9 -6 -14 3 -5 -17 -9 -43 -9 -27 0 -55 -6 -62 -12 -11 -11 -11 -9 -1 10
6 13 17 21 24 19 7 -3 28 -2 47 3 39 9 60 11 41 3z m338 -18 c0 -14 -4 -25
-10 -25 -5 0 -10 11 -10 25 0 14 5 25 10 25 6 0 10 -11 10 -25z m-1504 -61 c1
-42 -2 -64 -9 -61 -6 2 -11 32 -12 69 0 41 3 64 10 62 5 -3 11 -34 11 -70z
m194 56 c0 -5 -4 -10 -9 -10 -6 0 -13 5 -16 10 -3 6 1 10 9 10 9 0 16 -4 16
-10z m1384 -17 c-3 -16 -8 -34 -10 -41 -2 -7 0 -22 6 -32 7 -13 5 -21 -5 -30
-9 -7 -19 -9 -23 -5 -4 4 -2 9 3 11 6 2 9 24 7 49 -4 50 2 75 18 75 6 0 8 -11
4 -27z m-1269 -15 c3 -18 7 -54 8 -80 2 -42 5 -48 24 -48 12 0 25 -5 29 -11 3
-6 20 -9 36 -7 16 3 32 0 35 -5 4 -6 -16 -7 -53 -4 -32 4 -76 6 -96 7 -28 0
-36 4 -32 14 3 8 13 12 23 9 16 -4 18 2 15 54 -2 32 -4 66 -5 76 0 12 -6 16
-17 13 -37 -11 -72 -14 -72 -6 0 8 29 15 77 19 17 1 23 -6 28 -31z m127 -41
c17 -10 28 -20 24 -24 -3 -3 -16 2 -27 13 -22 19 -22 19 -8 -3 20 -34 38 -36
45 -7 4 15 3 29 -2 33 -13 9 -11 44 4 49 8 2 12 -10 12 -43 0 -29 4 -44 10
-40 6 4 8 11 5 16 -4 5 -2 9 3 9 6 0 8 10 5 21 -5 16 -2 20 8 17 8 -3 13 -10
12 -15 -3 -16 73 -15 87 2 20 24 30 18 30 -20 0 -37 -13 -47 -24 -18 -4 9 -1
20 6 25 10 7 9 9 -2 5 -13 -3 -17 -26 -11 -59 0 -4 10 -5 21 -3 11 2 20 0 20
-6 0 -5 -4 -9 -10 -9 -5 0 -9 -3 -9 -7 5 -30 -4 -32 -17 -4 -8 19 -22 40 -32
48 -16 12 -16 13 2 6 13 -4 17 -3 12 5 -4 7 -25 12 -46 12 -37 0 -39 -2 -31
-23 6 -15 4 -26 -5 -35 -8 -7 -14 -18 -14 -25 0 -7 7 -3 15 7 8 11 15 15 15 9
0 -8 12 -10 35 -6 30 5 35 3 35 -15 0 -18 6 -20 70 -19 41 1 70 -2 70 -8 0 -6
-35 -10 -85 -10 -61 0 -85 3 -85 13 0 6 5 12 10 12 6 0 10 5 10 10 0 10 -29 8
-71 -5 -24 -8 -50 11 -42 31 6 16 -12 19 -22 4 -10 -17 -50 -11 -75 10 -13 11
-31 20 -42 20 -10 0 -18 7 -18 15 0 12 5 11 33 -3 17 -9 36 -23 40 -29 4 -7
12 -13 17 -13 10 0 7 15 -12 59 -9 19 -13 43 -9 55 5 18 6 16 9 -9 2 -22 12
-35 34 -48z m-15 36 c-3 -10 -5 -4 -5 12 0 17 2 24 5 18 2 -7 2 -21 0 -30z
m143 16 c0 -6 -4 -7 -10 -4 -5 3 -10 11 -10 16 0 6 5 7 10 4 6 -3 10 -11 10
-16z m60 1 c0 -5 -9 -6 -20 -3 -11 3 -20 9 -20 13 0 5 9 6 20 3 11 -3 20 -9
20 -13z m77 -7 c-3 -3 -11 -2 -17 2 -9 6 -9 10 1 16 14 8 27 -7 16 -18z m703
16 c0 -6 6 -9 13 -6 9 3 12 -9 11 -47 -1 -28 -6 -52 -10 -53 -5 -1 -8 18 -6
42 2 24 -2 46 -8 50 -5 3 -10 0 -10 -8 0 -10 -7 -13 -20 -10 -11 3 -20 11 -20
18 0 7 -6 16 -12 18 -7 3 4 6 25 6 21 1 37 -4 37 -10z m-1206 -42 c11 -71 12
-97 4 -97 -4 0 -9 15 -10 33 0 17 -2 37 -3 42 -2 6 -3 18 -4 29 -1 12 -6 16
-16 12 -15 -5 -21 5 -9 17 13 13 34 -7 38 -36z m471 23 c10 -11 15 -20 12 -20
-4 0 -16 9 -27 20 -11 11 -16 20 -12 20 5 0 17 -9 27 -20z m145 11 c0 -5 -7
-17 -16 -25 -12 -12 -12 -16 -2 -17 7 -1 2 -5 -12 -9 l-25 -8 28 -1 c15 -1 27
-5 27 -10 0 -5 -8 -8 -17 -7 -10 0 -17 -4 -16 -11 1 -6 -4 -16 -11 -22 -11 -9
-13 -2 -10 36 1 27 3 51 3 56 1 4 10 7 21 7 11 0 20 5 20 10 0 6 2 10 5 10 3
0 5 -4 5 -9z m70 -11 c-6 -11 -15 -20 -20 -20 -6 0 -10 -4 -10 -8 0 -5 7 -9
15 -9 8 0 15 5 15 10 0 5 7 6 17 3 10 -4 23 1 35 14 18 19 20 19 44 3 14 -9
37 -16 52 -17 30 -1 41 -26 20 -47 -7 -8 -12 -30 -12 -49 1 -19 0 -30 -3 -23
-2 7 -12 10 -21 7 -15 -5 -15 -4 1 9 21 17 22 34 3 34 -8 0 -14 -5 -13 -11 1
-6 -20 -12 -48 -13 -27 -2 -52 -7 -55 -11 -3 -4 -20 -7 -37 -7 -18 0 -33 -4
-33 -10 0 -5 17 -10 37 -10 20 0 38 -4 40 -10 3 -9 -86 -13 -96 -4 -11 11 13
49 32 50 12 1 29 2 39 3 9 1 20 4 24 9 4 4 22 7 40 7 18 0 36 5 39 10 3 6 14
10 24 10 9 0 22 5 28 11 13 13 6 39 -9 39 -5 0 -7 -4 -4 -9 8 -12 -86 -20
-101 -9 -8 6 -17 1 -29 -17 -9 -14 -19 -23 -22 -21 -3 3 1 12 8 21 7 9 10 18
7 21 -3 3 -12 -7 -21 -24 -8 -16 -12 -32 -9 -36 4 -3 1 -6 -5 -6 -15 0 -15 6
-2 31 7 13 7 19 0 19 -5 0 -10 -4 -10 -8 0 -16 -35 -47 -55 -50 -19 -2 -19 -2
-3 11 10 8 15 17 11 21 -4 4 0 4 9 1 13 -5 16 0 14 24 -1 17 1 31 6 31 4 0 8
-4 8 -10 0 -5 4 -10 10 -10 5 0 7 6 4 14 -3 8 3 23 13 34 24 26 37 27 23 2z
m47 9 c-9 -6 -15 -14 -12 -20 3 -5 -1 -6 -9 -3 -12 5 -13 9 -3 20 7 7 19 13
27 13 12 0 11 -2 -3 -10z m107 -4 c19 -14 18 -15 -12 -15 -24 0 -30 4 -26 15
7 18 14 18 38 0z m195 6 c2 -1 -2 -7 -8 -15 -6 -7 -9 -22 -5 -32 5 -16 4 -16
-5 -4 -9 13 -11 13 -11 -2 0 -11 7 -18 18 -18 14 0 15 -2 2 -10 -9 -5 -19 -5
-26 0 -6 6 -14 7 -17 3 -4 -3 -13 0 -22 7 -16 13 -18 10 -9 -14 3 -8 12 -12
20 -9 26 10 14 -5 -16 -20 -16 -9 -38 -13 -48 -10 -12 3 -22 -2 -25 -11 -9
-22 -26 -20 -24 3 1 12 6 17 16 13 10 -4 12 -1 6 9 -13 20 -12 109 1 109 7 0
9 -19 6 -55 l-4 -55 31 0 c38 0 39 12 6 38 -29 23 -32 34 -7 25 15 -6 15 -5 3
10 -12 15 -11 17 2 17 12 0 14 -7 11 -27 -4 -22 -2 -25 7 -16 13 13 4 67 -11
58 -5 -3 -11 -1 -14 4 -5 7 98 9 123 2z m-1154 -11 c-3 -5 -2 -10 4 -10 5 0
11 6 14 13 2 6 8 9 12 5 4 -4 0 -14 -8 -22 -14 -14 -18 -14 -39 4 l-23 19 23
1 c13 0 20 -4 17 -10z m665 -20 c0 -16 -2 -30 -4 -30 -2 0 -6 14 -8 30 -3 17
-1 30 4 30 4 0 8 -13 8 -30z m720 20 c0 -5 -4 -10 -10 -10 -5 0 -10 5 -10 10
0 6 5 10 10 10 6 0 10 -4 10 -10z m-1100 -21 c0 -11 -4 -17 -10 -14 -5 3 -10
13 -10 21 0 8 5 14 10 14 6 0 10 -9 10 -21z m1140 11 c0 -5 6 -10 14 -10 18 0
30 -17 17 -24 -5 -4 -22 5 -38 19 -22 19 -24 24 -10 25 9 0 17 -4 17 -10z
m-1450 -11 c0 -4 -9 -9 -20 -12 -13 -3 -20 0 -20 8 0 8 9 13 20 12 11 -1 20
-4 20 -8z m220 -39 c0 -25 -5 -40 -16 -44 -29 -11 -34 -6 -34 38 0 34 4 45 18
49 27 6 32 -1 32 -43z m1088 24 c17 -3 22 -11 22 -33 0 -24 -5 -30 -31 -35
-68 -13 -87 2 -74 57 7 25 13 25 83 11z m117 6 c-3 -5 -10 -10 -16 -10 -5 0
-9 5 -9 10 0 6 7 10 16 10 8 0 12 -4 9 -10z m-1401 -32 c4 -20 3 -28 -7 -28
-9 0 -12 9 -9 30 5 36 7 35 16 -2z m648 8 c8 -39 -7 -51 -25 -22 -22 33 -21
46 2 46 12 0 20 -9 23 -24z m766 -21 c-3 -29 -1 -35 11 -30 27 11 33 10 38 -2
3 -9 -5 -13 -24 -13 -15 0 -40 -7 -55 -14 -24 -13 -28 -13 -28 0 0 8 10 14 25
14 18 0 23 4 19 15 -7 16 3 65 12 65 4 0 4 -16 2 -35z m-914 6 c12 -13 14 -21
6 -26 -13 -8 -52 24 -44 36 8 14 19 11 38 -10z m-482 -41 c17 0 34 -17 25 -26
-2 -2 -17 2 -33 11 -16 8 -39 15 -51 15 -13 0 -23 4 -23 8 0 18 12 20 38 6 15
-8 35 -14 44 -14z m648 1 c0 -15 -7 -18 -45 -17 -56 1 -60 16 -5 16 22 0 40 5
40 10 0 6 2 10 5 10 3 0 5 -8 5 -19z m457 4 c0 -8 -4 -15 -9 -15 -4 0 -8 -7
-8 -15 0 -9 -9 -15 -22 -14 -17 1 -19 2 -5 6 9 2 17 10 17 17 0 9 19 36 25 36
1 0 2 -7 2 -15z m-1042 -47 c-1 -28 -5 -53 -10 -55 -6 -2 -10 22 -10 52 0 30
5 55 10 55 6 0 10 -23 10 -52z m1261 26 c-3 -9 -6 -33 -6 -55 0 -21 -4 -39
-10 -39 -5 0 -9 24 -7 55 1 38 6 55 16 55 8 0 11 -6 7 -16z m-1403 -1 c3 -5 7
-30 8 -58 5 -58 20 -78 63 -83 45 -4 58 -10 50 -23 -5 -8 -8 -8 -13 0 -4 6
-29 12 -54 14 -36 1 -47 6 -47 18 0 8 -3 18 -6 22 -4 3 -7 23 -9 44 -1 21 -6
46 -10 56 -7 16 9 25 18 10z m227 -13 c0 -4 -17 -7 -38 -7 -22 0 -39 5 -39 11
0 7 15 10 39 8 21 -2 38 -7 38 -12z m560 5 c0 -8 -6 -15 -14 -15 -8 0 -16 -7
-20 -15 -3 -8 -1 -15 4 -15 6 0 10 5 10 12 0 7 6 6 18 -3 9 -8 29 -14 44 -13
18 1 25 -3 21 -13 -3 -7 -9 -13 -15 -13 -5 0 -6 6 -2 13 5 8 3 8 -9 -2 -26
-20 -13 -28 46 -27 36 1 54 -3 54 -11 0 -9 -12 -11 -41 -7 -76 10 -88 14 -82
29 3 8 1 17 -5 21 -18 11 -22 -5 -7 -28 19 -31 12 -58 -15 -57 -17 1 -18 2 -4
6 9 2 17 9 17 14 0 12 -7 11 -31 -1 -10 -6 -19 -7 -19 -2 0 5 10 14 23 21 12
6 14 9 5 7 -19 -6 -19 -5 -23 66 -2 31 2 38 19 41 12 2 22 5 24 6 1 0 2 -6 2
-14z m170 10 c0 -10 -45 -23 -55 -17 -5 4 4 10 20 13 17 4 31 7 33 8 1 0 2 -1
2 -4z m-880 -34 c0 -16 3 -36 6 -45 3 -9 2 -16 -4 -16 -5 0 -12 20 -14 45 -2
25 0 45 4 45 5 0 8 -13 8 -29z m1453 -28 c0 -30 -4 -57 -7 -60 -3 -4 -6 -15
-6 -25 0 -10 -5 -18 -11 -18 -6 0 -9 9 -6 20 3 11 1 18 -3 15 -5 -3 -2 9 7 26
9 18 13 44 10 63 -3 21 -1 33 6 33 8 0 11 -19 10 -54z m-983 32 c0 -6 -19 -9
-45 -7 -28 3 -45 0 -45 -7 0 -6 7 -11 15 -11 16 0 17 -11 5 -50 -7 -23 -8 -23
-9 -3 -2 38 -13 53 -40 54 l-26 1 28 12 c15 7 25 14 23 17 -2 2 18 4 45 4 27
0 49 -5 49 -10z m524 2 c-2 -7 9 -18 28 -26 18 -8 37 -17 42 -19 5 -3 6 0 2 6
-8 13 92 6 109 -8 6 -4 19 -4 30 1 11 4 29 7 40 7 16 0 16 -2 -5 -9 -23 -8
-22 -8 8 -5 22 2 32 -2 32 -11 0 -9 -8 -12 -22 -8 -13 3 -36 7 -53 10 -16 3
-45 8 -62 11 -48 9 -95 -3 -126 -32 -16 -14 -31 -24 -33 -21 -3 3 8 15 25 28
36 27 38 35 10 42 -17 5 -24 -2 -40 -36 -18 -40 -19 -41 -19 -13 0 16 8 38 18
49 17 19 16 19 -30 16 -33 -3 -48 0 -48 8 0 8 10 11 29 7 16 -3 37 -1 48 5 23
13 23 13 17 -2z m388 -37 c-3 -32 0 -50 7 -50 6 0 11 -7 11 -15 0 -8 9 -24 20
-35 20 -20 20 -20 -13 -36 -17 -9 -35 -21 -38 -27 -4 -5 -24 -13 -45 -17 -22
-4 -47 -11 -56 -15 -11 -4 -18 -3 -18 4 0 6 9 11 19 11 18 0 20 7 18 65 -1 39
2 66 9 69 7 3 10 -16 8 -59 -3 -61 -3 -63 21 -61 14 0 25 3 25 6 0 3 14 14 30
23 44 26 38 41 -14 35 -29 -4 -46 -1 -49 6 -3 8 6 10 28 8 44 -5 55 16 16 31
-17 6 -31 15 -31 20 0 4 8 3 18 -2 15 -8 17 -4 16 32 -2 43 2 57 14 57 4 0 5
-22 4 -50z m-1419 27 c3 -8 1 -20 -4 -28 -6 -10 -9 -7 -9 14 0 29 5 35 13 14z
m925 -7 c3 -9 -1 -11 -12 -7 -10 4 -25 7 -34 8 -14 0 -13 2 3 9 25 11 37 8 43
-10z m-758 -5 c0 -8 -2 -15 -4 -15 -2 0 -6 7 -10 15 -3 8 -1 15 4 15 6 0 10
-7 10 -15z m150 -5 c0 -5 -15 -10 -33 -10 -18 0 -38 -5 -45 -12 -9 -9 -12 -8
-12 4 0 12 11 18 38 21 20 2 40 4 45 5 4 1 7 -2 7 -8z m64 -25 c22 -19 37 -38
33 -41 -3 -3 -15 4 -26 15 -13 13 -27 18 -37 14 -11 -4 -15 -3 -10 5 3 6 2 13
-4 17 -12 7 -14 25 -2 25 4 -1 25 -16 46 -35z m204 12 c3 -12 -3 -17 -20 -16
-13 0 -18 3 -11 5 7 3 9 12 6 21 -4 11 -2 14 8 11 8 -3 15 -12 17 -21z m60 4
c3 -8 -1 -12 -9 -9 -7 2 -15 10 -17 17 -3 8 1 12 9 9 7 -2 15 -10 17 -17z
m-428 -11 c0 -5 -15 -10 -34 -10 -19 0 -43 -3 -53 -6 -12 -5 -15 -4 -8 4 9 9
29 14 83 21 6 0 12 -3 12 -9z m304 -1 c-3 -5 -14 -9 -25 -9 -10 0 -19 4 -19 9
0 5 11 9 25 9 13 0 22 -4 19 -9z m165 -24 c-3 -3 -34 -7 -68 -9 -37 -2 -59 0
-54 5 5 5 30 10 56 11 26 1 47 7 47 12 0 6 5 5 12 -2 6 -6 9 -14 7 -17z m-645
-15 c-22 -9 -41 -16 -43 -14 -9 8 21 32 34 28 7 -3 16 0 20 5 3 6 11 8 17 5 5
-4 -7 -14 -28 -24z m803 24 c-3 -3 -12 -4 -19 -1 -8 3 -5 6 6 6 11 1 17 -2 13
-5z m288 -13 c-8 -26 8 -34 50 -22 19 5 35 5 35 1 0 -5 -15 -12 -34 -15 -38
-8 -76 8 -76 31 0 8 5 12 10 9 6 -3 10 -1 10 4 0 6 3 11 6 11 3 0 3 -9 -1 -19z
m-1017 -70 c-3 -58 -2 -61 20 -61 12 0 22 -5 22 -11 0 -6 -8 -7 -22 -3 -13 4
-33 8 -45 9 -12 1 -39 14 -60 28 -22 15 -44 27 -51 27 -7 0 -12 4 -12 8 0 22
15 19 48 -8 19 -16 39 -27 43 -24 4 2 10 0 14 -6 7 -12 26 -14 23 -2 0 4 2 15
7 25 4 10 3 34 -2 52 -11 35 -6 52 10 36 5 -5 7 -36 5 -70z m66 67 c-3 -4 4
-8 15 -8 11 0 23 -5 27 -12 5 -8 0 -9 -17 -4 -13 4 -35 10 -49 13 -24 4 -24 4
4 -11 15 -9 35 -16 42 -16 8 0 14 -4 14 -9 0 -5 -20 -8 -45 -7 -39 1 -45 4
-42 21 4 31 15 44 37 42 10 -1 16 -5 14 -9z m151 2 c4 -6 -8 -10 -29 -10 -19
0 -38 5 -41 10 -4 6 8 10 29 10 19 0 38 -4 41 -10z m215 -5 c0 -14 12 -20 33
-16 5 1 6 -3 2 -9 -5 -9 43 -16 81 -11 6 1 16 -5 23 -12 16 -20 -34 -47 -52
-27 -10 10 -9 12 6 7 9 -4 17 -2 17 3 0 11 -64 24 -82 17 -7 -3 -2 -6 12 -6
16 -1 29 -10 36 -25 11 -23 10 -24 -12 -14 -13 6 -24 15 -24 20 0 11 -71 -1
-84 -13 -6 -5 -15 -9 -20 -9 -6 0 -4 5 4 11 12 9 11 10 -7 6 -14 -3 -23 0 -23
7 0 7 17 11 48 10 51 -1 73 20 43 43 -19 14 -61 17 -61 4 0 -5 -9 -7 -21 -4
-28 8 -12 21 31 26 19 2 38 5 43 5 4 1 7 -5 7 -13z m423 -1 c9 -4 17 -11 17
-16 0 -6 -7 -7 -16 -4 -9 3 -29 6 -45 6 -16 0 -29 5 -29 11 0 6 9 8 21 4 16
-5 19 -4 14 5 -5 9 -3 11 6 6 8 -3 22 -9 32 -12z m327 -5 c0 -5 -8 -9 -18 -9
-10 0 -23 -5 -30 -12 -15 -15 -28 -2 -14 14 12 15 62 20 62 7z m-903 -14 c12
-8 28 -12 36 -9 12 4 16 -6 18 -45 3 -30 0 -51 -6 -51 -5 0 -2 -5 8 -11 24
-14 22 -32 -3 -24 -18 6 -35 6 -90 4 -47 -2 -90 6 -90 16 0 8 15 9 50 5 28 -4
50 -4 50 0 0 4 13 5 29 2 22 -3 30 1 35 15 7 24 5 87 -3 74 -4 -5 -12 -7 -19
-2 -16 9 -82 1 -82 -10 0 -6 -10 -5 -21 2 -12 6 -34 9 -50 7 -20 -3 -29 0 -29
9 0 18 26 27 48 17 9 -4 33 -8 54 -9 27 -2 35 1 31 11 -7 18 7 18 34 -1z m693
5 c8 -5 13 -10 10 -11 -3 0 -15 -2 -27 -5 -22 -4 -30 6 -16 19 9 9 15 9 33 -3z
m-215 -20 c10 -11 16 -20 14 -21 -40 -4 -99 -3 -99 3 0 4 16 8 35 8 19 0 35 4
35 9 0 6 -16 7 -35 4 -19 -3 -35 -1 -35 4 0 19 66 14 85 -7z m-325 -6 c0 -2
-21 -4 -46 -4 -25 0 -43 4 -40 8 4 7 86 4 86 -4z m373 9 c-7 -2 -19 -2 -25 0
-7 3 -2 5 12 5 14 0 19 -2 13 -5z m361 -4 c-4 -8 1 -9 16 -4 18 6 21 3 18 -11
-2 -12 -15 -21 -33 -24 l-30 -6 33 -7 c17 -3 32 -12 32 -19 0 -14 -49 -14
-142 -2 -33 5 -48 3 -48 -5 0 -6 -7 -11 -15 -11 -20 0 -19 10 1 25 14 10 7 12
-40 11 -31 -1 -55 3 -53 8 3 10 87 14 87 4 0 -8 27 -4 36 5 12 11 54 8 54 -4
0 -7 -10 -9 -25 -7 -14 3 -25 1 -25 -5 0 -5 15 -7 35 -4 19 3 35 3 35 -1 0 -4
19 -8 43 -8 23 -1 32 0 20 3 -12 2 -27 10 -33 18 -6 8 -19 11 -28 7 -16 -5
-16 -5 0 11 9 10 27 21 40 26 30 13 30 13 22 0z m-499 -47 c-11 -11 -27 17
-20 35 6 16 8 16 16 -6 5 -13 7 -26 4 -29z m325 35 c0 -5 -23 -7 -50 -5 l-51
3 2 -47 c2 -45 4 -47 30 -44 16 2 30 -1 31 -6 2 -5 21 -2 43 7 35 15 40 15 50
1 8 -10 15 -12 22 -5 13 13 81 20 88 9 3 -4 -12 -11 -33 -14 -62 -11 -262 -14
-262 -5 0 5 3 9 8 9 4 0 8 21 10 48 l2 47 -52 -2 c-49 -1 -50 -1 -13 5 57 10
175 9 175 -1z m108 -2 c-8 -7 -99 -12 -91 -5 9 9 73 18 86 12 5 -2 7 -5 5 -7z
m-803 -15 c8 0 13 -9 12 -20 -1 -11 -6 -18 -12 -16 -5 2 -9 9 -7 15 3 14 -43
14 -70 0 -27 -15 -108 -18 -108 -4 0 5 21 10 48 10 26 -1 58 5 72 12 14 7 31
11 38 8 8 -3 20 -5 27 -5z m336 3 c0 -5 2 -19 5 -31 3 -18 -1 -25 -16 -29 -11
-3 -18 -9 -15 -13 5 -8 -67 -4 -92 5 -7 2 -13 1 -13 -3 0 -4 -34 -6 -75 -4
-41 2 -75 7 -75 10 0 8 206 6 226 -2 15 -6 19 10 5 18 -14 9 12 56 32 56 9 0
17 -3 18 -7z m84 -12 c3 -6 -3 -15 -14 -20 -16 -9 -18 -8 -14 9 6 21 18 26 28
11z m152 -8 c3 -7 -11 -9 -42 -6 -33 4 -45 2 -45 -8 0 -10 -3 -10 -12 -1 -7 7
-17 12 -22 12 -6 0 -4 -5 4 -10 12 -8 10 -10 -9 -10 -18 0 -21 3 -12 13 6 8 9
16 7 18 -2 2 25 4 62 4 39 0 67 -5 69 -12z m433 7 c-8 -5 -21 -10 -29 -10 -8
0 -19 -7 -25 -16 -10 -13 -12 -13 -13 6 -1 11 2 18 6 16 4 -3 13 -1 21 5 8 5
24 9 35 9 17 0 17 -2 5 -10z m-1200 -24 c0 -6 -19 -11 -45 -11 -59 0 -59 20 0
21 27 1 45 -4 45 -10z m333 7 c-7 -2 -19 -2 -25 0 -7 3 -2 5 12 5 14 0 19 -2
13 -5z m47 -13 c10 -6 5 -9 -18 -8 -22 1 -29 4 -20 9 16 11 20 11 38 -1z
m-362 -20 c13 0 22 -6 22 -15 0 -12 -4 -13 -19 -5 -11 5 -31 10 -45 10 -14 0
-26 5 -26 11 0 7 9 9 23 5 12 -3 32 -6 45 -6z m566 2 c3 -5 42 -8 86 -7 45 0
84 -3 86 -7 3 -4 1 -8 -5 -8 -6 0 -8 -6 -6 -12 4 -9 -9 -13 -45 -13 -61 0 -67
14 -7 17 l42 1 -45 6 c-25 4 -53 3 -62 -1 -10 -5 -18 -5 -18 -1 0 7 -31 8 -72
4 -4 -1 -5 -8 -2 -16 4 -9 0 -15 -10 -15 -18 0 -19 2 -10 24 3 9 12 16 20 16
8 0 14 5 14 10 0 12 27 13 34 2z m-194 -34 c0 -4 -29 -6 -65 -5 -36 1 -65 6
-65 10 0 4 29 7 65 5 36 -1 65 -5 65 -10z m93 -3 c9 2 17 -1 17 -6 0 -11 -11
-11 -65 -2 -36 6 -37 7 -15 13 14 4 30 4 35 0 6 -4 18 -6 28 -5z m157 -7 c0
-9 -30 -14 -62 -10 -44 6 -33 17 17 17 25 0 45 -3 45 -7z m-180 -29 c0 -14
-17 -10 -23 5 -4 10 -1 13 9 9 7 -3 14 -9 14 -14z m-85 -9 c-3 -4 1 -7 8 -7
32 3 95 -24 100 -43 7 -28 33 -25 53 5 9 14 25 25 36 25 10 0 29 7 42 15 21
14 24 14 29 0 5 -10 -5 -21 -32 -35 -21 -10 -42 -16 -46 -12 -3 4 -5 1 -3 -7
4 -18 -82 -37 -93 -20 -3 6 -8 10 -10 8 -8 -5 -49 27 -49 38 0 7 -3 12 -7 12
-28 -4 -43 3 -43 22 0 11 5 17 10 14 6 -4 8 -10 5 -15z m189 8 c-3 -4 -11 -5
-19 -1 -21 7 -19 12 4 10 11 0 18 -5 15 -9z m-40 -16 c7 -11 -4 -52 -14 -52
-6 0 -30 44 -30 55 0 9 39 5 44 -3z m97 -136 c-17 -17 -31 -25 -31 -19 0 7 8
17 19 22 10 6 22 18 25 28 6 16 6 16 -12 0 -11 -10 -26 -17 -33 -15 -8 2 -13
-3 -11 -9 1 -7 -3 -13 -9 -13 -6 0 -8 -8 -4 -19 7 -24 -22 -51 -31 -28 -3 9
-12 13 -20 10 -8 -3 -25 2 -39 11 -14 9 -25 13 -25 8 0 -5 9 -13 21 -18 20 -9
20 -10 3 -24 -10 -8 -15 -10 -11 -3 4 6 0 16 -9 21 -10 5 -16 23 -17 45 -1 22
-4 32 -9 24 -6 -9 -8 -9 -8 1 0 7 -5 10 -11 7 -6 -4 -13 3 -16 15 -4 16 -8 18
-14 8 -7 -10 -9 -10 -9 0 0 17 33 29 38 14 2 -7 10 -12 17 -12 16 0 34 -30 28
-46 -2 -7 11 -17 28 -23 35 -12 49 -3 49 31 0 9 4 19 9 22 5 4 7 -4 5 -16 l-5
-23 12 22 c14 27 40 38 51 21 5 -9 8 -6 8 10 0 24 15 30 23 10 3 -7 7 1 8 17
2 26 3 24 6 -9 4 -33 0 -44 -26 -70z m-95 38 c-3 -9 -6 -21 -7 -27 0 -7 -4 -3
-8 8 -9 22 -5 35 11 35 5 0 7 -7 4 -16z m-36 -30 c0 -8 -4 -14 -10 -14 -5 0
-10 9 -10 21 0 11 5 17 10 14 6 -3 10 -13 10 -21z m-66 -19 c4 -11 0 -12 -19
-3 -13 6 -22 15 -19 19 7 11 31 1 38 -16z m-51 -35 c-3 -12 -8 -19 -11 -16 -5
6 5 36 12 36 2 0 2 -9 -1 -20z m44 4 c-3 -3 6 -16 21 -29 25 -21 29 -22 44 -8
11 10 24 13 35 8 12 -5 14 -9 5 -12 -6 -3 -10 -9 -6 -14 8 -13 -10 -11 -25 4
-11 10 -12 7 -6 -13 10 -33 21 -44 36 -34 9 5 8 9 -7 15 -14 6 -15 8 -3 8 8 1
28 15 44 31 17 17 35 28 44 25 11 -4 12 -3 1 10 -10 12 -10 15 4 15 29 0 30
-29 2 -51 -14 -11 -26 -27 -26 -35 0 -8 -5 -14 -11 -14 -7 0 -19 -8 -28 -19
-21 -24 -74 -23 -79 3 -2 10 2 23 10 28 10 8 10 9 -2 6 -8 -3 -27 9 -44 26
-16 17 -26 25 -22 19 4 -7 2 -13 -4 -13 -17 0 -24 31 -9 41 16 10 36 12 26 3z
m223 -49 c-7 -9 -23 -21 -34 -27 -16 -8 -14 -3 8 21 29 31 51 36 26 6z m-220
-30 c10 -12 10 -15 -4 -15 -9 0 -16 7 -16 15 0 8 2 15 4 15 2 0 9 -7 16 -15z
m25 -49 c12 -9 16 -19 11 -32 -6 -15 -5 -17 5 -6 22 21 36 14 43 -20 10 -52 7
-91 -11 -110 -9 -10 -12 -18 -7 -18 17 0 15 -59 -2 -85 -9 -14 -20 -25 -25
-25 -16 0 -10 39 8 48 14 9 14 10 -5 16 -11 4 -24 17 -28 29 -7 22 -8 22 -14
-3 -6 -22 -8 -23 -15 -7 -4 10 -3 23 2 28 12 12 43 1 43 -15 0 -6 9 -12 20
-13 21 -2 20 7 -8 39 -7 9 -11 22 -7 27 3 6 3 20 0 32 -5 14 -12 18 -26 14
-15 -5 -19 -1 -19 15 0 13 -4 18 -11 14 -6 -3 -9 -15 -6 -25 3 -11 1 -19 -4
-19 -13 0 -11 34 3 48 15 15 33 15 50 -1 7 -7 25 -18 40 -24 26 -12 27 -11 16
6 -7 11 -18 17 -27 13 -14 -5 -14 -3 -3 10 11 14 10 16 -9 11 -18 -5 -20 -3
-15 15 8 23 -5 35 -28 26 -15 -6 -15 -8 1 -20 10 -7 13 -14 8 -14 -21 0 -34
22 -24 42 12 22 19 22 44 4z m183 -3 c-2 -10 -13 -22 -26 -28 -12 -5 -22 -13
-22 -18 0 -15 25 -34 38 -29 6 2 12 -4 12 -14 0 -9 -3 -15 -6 -11 -10 9 -35
-20 -43 -51 -9 -34 -44 -38 -46 -4 -1 12 2 22 6 22 4 0 5 9 2 20 -5 18 5 25
30 21 14 -2 7 17 -9 23 -8 3 -12 2 -9 -4 3 -6 0 -10 -7 -10 -8 0 -14 13 -15
33 -1 17 1 26 3 20 4 -10 9 -9 20 2 9 8 13 19 10 24 -7 11 10 19 42 20 17 1
23 -4 20 -16z m10 -196 c2 -9 -2 -17 -8 -17 -7 0 -9 7 -6 16 3 8 2 12 -4 9 -6
-3 -10 -1 -10 5 0 18 25 6 28 -13z m-28 -17 c0 -10 -9 -22 -20 -25 -11 -3 -20
-9 -21 -13 0 -4 -2 -19 -4 -34 -4 -31 2 -33 40 -16 19 9 28 9 37 0 6 -6 8 -15
3 -19 -4 -5 -10 -2 -12 4 -4 10 -10 10 -26 1 -53 -28 -61 -57 -22 -82 29 -19
25 -36 -9 -36 -29 0 -39 10 -26 25 8 9 4 12 -12 11 -18 -1 -23 4 -23 24 0 14
8 37 17 52 21 31 25 63 4 36 -7 -10 -16 -15 -19 -11 -4 3 -3 11 2 17 10 12 10
14 12 49 1 16 2 18 6 5 2 -10 9 -18 14 -18 6 0 7 5 4 10 -11 17 5 32 21 19 11
-9 14 -7 14 10 0 12 5 19 10 16 6 -3 10 -15 10 -25z m-170 -86 c0 -2 -7 -4
-15 -4 -8 0 -15 4 -15 10 0 5 7 7 15 4 8 -4 15 -8 15 -10z m-44 -26 c-23 -13
-40 0 -25 18 9 11 15 12 26 2 12 -10 12 -13 -1 -20z m93 9 c12 -15 10 -77 -2
-77 -5 0 -5 -5 -2 -10 4 -6 9 -8 13 -6 4 2 13 -2 20 -10 15 -16 15 -16 -16
-19 -16 -2 -21 2 -18 11 7 17 1 18 -23 2 -20 -12 -51 -5 -51 11 0 6 13 17 28
25 28 14 64 50 46 45 -5 -2 -19 1 -32 5 -22 7 -22 8 -5 22 23 17 28 17 42 1z
m-19 -41 c0 -3 -4 -8 -10 -11 -5 -3 -10 -1 -10 4 0 6 5 11 10 11 6 0 10 -2 10
-4z m-30 -101 c5 -3 11 -1 15 5 9 15 45 -7 44 -28 0 -10 -3 -12 -6 -4 -2 6
-10 12 -16 12 -7 -1 -2 -9 10 -19 18 -15 22 -26 17 -49 -5 -23 -1 -33 17 -46
13 -9 19 -16 13 -16 -23 0 -46 28 -46 55 0 25 -2 26 -11 9 -7 -10 -12 -23 -12
-28 0 -18 -34 -31 -46 -19 -9 9 -3 20 27 48 l39 35 -29 -4 c-16 -3 -26 -2 -23
1 4 3 1 15 -4 26 -9 16 -13 17 -20 6 -6 -10 -9 -11 -9 -1 0 9 -6 8 -24 -3 -26
-18 -43 -6 -32 21 5 12 16 14 47 10 22 -3 44 -8 49 -11z m205 -4 c0 -8 -6 -16
-14 -19 -8 -3 -11 0 -7 7 9 14 -9 14 -36 0 -16 -9 -19 -8 -13 2 5 8 4 10 -4 5
-12 -8 -6 -66 10 -98 6 -11 4 -18 -7 -22 -25 -9 -34 2 -35 42 0 30 -2 33 -9
17 -5 -12 -9 -14 -9 -6 -1 8 7 23 17 34 10 13 11 17 3 12 -11 -6 -13 -4 -8 8
3 10 2 17 -4 17 -6 0 -8 3 -5 8 2 4 30 7 63 7 43 0 58 -4 58 -14z m-150 -150
c-6 -5 -25 10 -25 20 0 5 6 4 14 -3 8 -7 12 -15 11 -17z m113 7 c-3 -7 -19
-16 -36 -20 -18 -5 -32 -14 -32 -21 1 -22 27 -47 49 -47 27 0 27 -17 -1 -26
-15 -4 -25 -1 -34 10 -11 16 -13 16 -22 0 -8 -14 -10 -6 -9 33 0 49 2 52 36
66 46 19 54 20 49 5z m-164 -9 c37 0 54 -18 58 -59 2 -22 0 -40 -4 -40 -11 0
-21 47 -12 61 5 8 3 9 -5 4 -7 -4 -11 -17 -9 -29 5 -24 -16 -51 -32 -41 -6 3
-10 1 -10 -4 0 -6 -10 -11 -22 -11 -19 0 -20 2 -8 11 13 9 12 10 -2 5 -12 -3
-18 0 -18 9 0 9 9 15 23 15 13 0 29 6 36 13 12 10 13 8 7 -8 -6 -16 -5 -18 5
-7 10 9 10 15 2 23 -6 6 -9 17 -7 24 6 15 -30 28 -68 25 -16 -1 -28 4 -28 10
0 8 12 10 38 6 20 -3 46 -6 56 -7z m-9 -127 c24 2 41 6 38 11 -2 4 1 7 6 7 6
0 11 -6 11 -14 0 -21 20 -30 33 -17 6 6 22 11 35 11 13 0 33 5 45 12 29 16 67
21 67 9 0 -14 -22 -26 -42 -23 -9 2 -19 -2 -22 -7 -4 -6 -13 -8 -20 -5 -8 3
-16 -4 -19 -16 -3 -12 -3 -20 -1 -17 7 6 54 -37 54 -49 0 -5 -4 -4 -8 1 -10
14 -55 39 -47 26 3 -7 -2 -11 -14 -11 -22 0 -28 19 -11 36 6 6 3 10 -10 11
-15 1 -20 -4 -20 -23 0 -14 -4 -23 -10 -19 -5 3 -7 12 -3 20 10 28 -15 43 -69
41 -56 -1 -98 20 -84 43 6 9 13 7 28 -9 15 -16 29 -20 63 -18z m-45 -32 c18 0
21 -3 11 -9 -18 -11 -53 1 -59 20 -4 11 -2 12 9 2 7 -7 24 -13 39 -13z m284 8
c-21 -38 -36 -47 -58 -36 -20 11 -19 12 19 29 50 22 48 21 39 7z m-189 -31
c-4 -9 -13 -13 -21 -10 -8 3 -14 -1 -14 -8 0 -11 -3 -11 -10 1 -6 10 -10 11
-10 3 0 -7 -4 -13 -10 -13 -23 0 -7 32 23 45 35 15 51 8 42 -18z m-88 -29 c9
-20 18 -23 61 -22 46 1 50 -1 41 -17 -14 -27 -11 -33 9 -18 15 12 16 12 4 -2
-9 -12 -10 -24 -2 -43 9 -26 30 -36 30 -15 0 5 5 7 10 4 6 -4 8 -9 6 -13 -2
-4 7 -8 20 -8 23 -2 23 -2 3 15 -36 29 -32 112 6 98 12 -5 14 -11 7 -23 -6
-11 -4 -26 5 -45 19 -38 33 -46 48 -26 10 14 13 12 25 -18 8 -19 20 -35 27
-35 18 0 16 17 -2 24 -8 3 -20 17 -25 31 -5 14 -13 24 -17 23 -5 0 -21 4 -36
10 -24 10 -26 15 -17 32 6 11 17 20 26 20 8 0 19 11 24 25 5 14 12 25 15 25 2
0 1 -10 -4 -23 -11 -27 6 -83 37 -122 24 -31 22 -62 -9 -106 -23 -33 -43 -80
-40 -97 1 -7 -5 -15 -14 -18 -8 -3 -22 -21 -30 -38 -9 -19 -31 -40 -51 -50
-30 -14 -34 -19 -24 -31 10 -12 10 -15 0 -15 -7 0 -10 -6 -7 -14 3 -8 -1 -17
-9 -20 -10 -4 -14 2 -14 18 0 13 -7 40 -15 60 -17 40 -6 48 18 13 l16 -22 19
24 c11 13 24 21 30 17 6 -4 18 6 27 23 19 38 20 51 1 25 -13 -17 -15 -18 -21
-2 -6 15 -10 14 -33 -7 -31 -29 -44 -28 -53 6 -4 13 -8 17 -8 9 -1 -13 -2 -13
-11 0 -5 8 -10 11 -10 6 0 -5 -7 -3 -15 4 -18 15 -20 -1 -3 -18 7 -7 9 -12 4
-12 -4 0 0 -10 8 -22 20 -28 21 -44 1 -28 -8 7 -15 19 -15 27 0 8 -14 27 -32
43 -27 25 -30 32 -21 53 14 29 0 63 -45 112 -32 35 -33 37 -18 61 9 13 21 24
27 24 6 0 7 5 4 10 -4 6 -11 7 -17 4 -6 -4 -6 1 1 14 6 11 11 34 11 50 0 47
29 59 47 20z m143 -18 c0 -5 -4 -10 -10 -10 -5 0 -10 5 -10 10 0 6 5 10 10 10
6 0 10 -4 10 -10z m166 -87 c-7 -7 -36 60 -35 79 0 7 10 -7 21 -30 11 -24 17
-46 14 -49z m-166 27 c0 -5 -2 -10 -4 -10 -3 0 -8 5 -11 10 -3 6 -1 10 4 10 6
0 11 -4 11 -10z m-65 -300 c3 -5 1 -10 -4 -10 -6 0 -11 5 -11 10 0 6 2 10 4
10 3 0 8 -4 11 -10z m102 -4 c0 -8 -6 -12 -14 -9 -7 3 -10 9 -7 14 8 14 21 11
21 -5z m-87 -86 c0 -5 -4 -10 -10 -10 -5 0 -10 5 -10 10 0 6 5 10 10 10 6 0
10 -4 10 -10z"/>
<path d="M1808 3583 c7 -3 16 -2 19 1 4 3 -2 6 -13 5 -11 0 -14 -3 -6 -6z"/>
<path d="M1860 3516 c0 -2 7 -7 16 -10 8 -3 12 -2 9 4 -6 10 -25 14 -25 6z"/>
<path d="M2160 3460 c0 -5 5 -10 11 -10 5 0 7 5 4 10 -3 6 -8 10 -11 10 -2 0
-4 -4 -4 -10z"/>
<path d="M870 3455 c0 -7 30 -13 34 -7 3 4 -4 9 -15 9 -10 1 -19 0 -19 -2z"/>
<path d="M960 3449 c0 -13 28 -18 33 -6 3 7 -3 13 -14 13 -11 0 -19 -3 -19 -7z"/>
<path d="M1801 3451 c-8 -5 -9 -11 -3 -15 5 -3 12 1 16 9 6 17 6 18 -13 6z"/>
<path d="M1826 3445 c-9 -26 -7 -32 5 -12 6 10 9 21 6 23 -2 3 -7 -2 -11 -11z"/>
<path d="M1850 3449 c0 -4 7 -9 15 -13 8 -3 15 0 15 7 0 8 3 8 9 -2 10 -15 31
-7 31 12 0 7 -4 6 -10 -3 -5 -8 -10 -10 -10 -4 0 7 -11 11 -25 10 -14 0 -25
-4 -25 -7z"/>
<path d="M1950 3451 c0 -15 60 -19 71 -4 8 9 8 13 0 13 -6 0 -11 -6 -11 -12 0
-8 -3 -9 -8 -3 -9 13 -52 18 -52 6z"/>
<path d="M1016 3438 c3 -4 9 -8 15 -8 5 0 9 4 9 8 0 5 -7 9 -15 9 -8 0 -12 -4
-9 -9z"/>
<path d="M1105 3440 c3 -5 13 -10 21 -10 8 0 14 5 14 10 0 6 -9 10 -21 10 -11
0 -17 -4 -14 -10z"/>
<path d="M1167 3443 c-4 -3 -7 -11 -7 -17 0 -6 5 -5 12 2 6 6 9 14 7 17 -3 3
-9 2 -12 -2z"/>
<path d="M1273 3443 c-7 -2 -13 -8 -13 -13 0 -10 68 -6 78 5 4 5 -1 5 -10 2
-10 -3 -20 -2 -23 3 -7 11 -13 11 -32 3z"/>
<path d="M1681 3434 c0 -11 3 -14 6 -6 3 7 2 16 -1 19 -3 4 -6 -2 -5 -13z"/>
<path d="M1725 3441 c-3 -6 4 -8 15 -6 11 2 20 -1 20 -6 0 -6 5 -7 11 -3 8 4
7 9 -2 15 -18 11 -36 11 -44 0z"/>
<path d="M1456 3415 c4 -8 7 -15 9 -15 2 0 5 7 9 15 3 9 0 15 -9 15 -9 0 -12
-6 -9 -15z"/>
<path d="M1555 3420 c3 -6 0 -13 -8 -16 -24 -9 -15 -56 13 -65 22 -8 23 -8 8
5 -21 16 -24 56 -5 56 8 0 14 7 14 15 0 8 -7 15 -14 15 -8 0 -11 -5 -8 -10z"/>
<path d="M1463 3383 c20 -5 23 -38 5 -50 -7 -4 -22 -7 -33 -5 -16 1 -16 0 4
-8 19 -8 27 -6 43 12 10 12 16 28 13 36 -3 7 -5 16 -5 18 0 2 -10 3 -22 3 -17
-1 -19 -2 -5 -6z"/>
<path d="M1507 3345 c-4 -8 -2 -17 3 -20 6 -4 10 3 10 14 0 25 -6 27 -13 6z"/>
<path d="M1535 3240 c-4 -6 -11 -8 -16 -5 -5 4 -9 1 -9 -4 0 -16 16 -13 30 4
7 8 10 15 7 15 -3 0 -9 -5 -12 -10z"/>
<path d="M1162 2990 c0 -14 2 -19 5 -12 2 6 2 18 0 25 -3 6 -5 1 -5 -13z"/>
<path d="M1861 2994 c0 -11 3 -14 6 -6 3 7 2 16 -1 19 -3 4 -6 -2 -5 -13z"/>
<path d="M1611 2924 c0 -11 3 -14 6 -6 3 7 2 16 -1 19 -3 4 -6 -2 -5 -13z"/>
<path d="M1517 2843 c-4 -3 -7 -11 -7 -17 0 -6 5 -5 12 2 6 6 9 14 7 17 -3 3
-9 2 -12 -2z"/>
<path d="M1525 2730 c-3 -5 -2 -10 4 -10 5 0 13 5 16 10 3 6 2 10 -4 10 -5 0
-13 -4 -16 -10z"/>
<path d="M1340 2638 c0 -9 5 -20 11 -23 17 -11 20 0 4 21 -13 17 -14 17 -15 2z"/>
<path d="M1651 2435 c-1 -17 -3 -18 -11 -5 -11 16 -13 9 -10 -32 1 -16 -6 -30
-17 -37 -17 -10 -17 -10 -1 -11 20 0 51 64 45 90 -3 10 -5 9 -6 -5z"/>
<path d="M1260 2499 c0 -5 5 -7 10 -4 6 3 10 8 10 11 0 2 -4 4 -10 4 -5 0 -10
-5 -10 -11z"/>
<path d="M1343 2341 c0 -11 5 -18 9 -15 4 3 5 11 1 19 -7 21 -12 19 -10 -4z"/>
<path d="M2105 2239 c-11 -17 1 -21 15 -4 8 9 8 15 2 15 -6 0 -14 -5 -17 -11z"/>
<path d="M1968 2173 c7 -3 16 -2 19 1 4 3 -2 6 -13 5 -11 0 -14 -3 -6 -6z"/>
<path d="M1241 2056 c-8 -10 -9 -16 -1 -21 5 -3 13 1 16 10 9 22 -1 29 -15 11z"/>
<path d="M2110 2140 c0 -5 4 -10 9 -10 6 0 13 5 16 10 3 6 -1 10 -9 10 -9 0
-16 -4 -16 -10z"/>
<path d="M1695 2120 c-3 -5 -3 -10 2 -10 4 0 1 -5 -7 -10 -11 -7 -2 -9 30 -9
40 1 42 2 15 8 -16 4 -29 12 -27 19 3 15 -5 16 -13 2z"/>
<path d="M1903 2124 c-3 -8 -1 -25 5 -37 10 -21 11 -21 11 -2 1 17 3 17 11 5
8 -12 10 -13 10 -1 0 8 8 24 18 35 16 20 16 20 -2 6 -15 -12 -20 -12 -23 -2
-6 17 -22 15 -30 -4z"/>
<path d="M1440 2081 c0 -5 8 -15 18 -22 15 -12 16 -12 5 2 -7 9 -10 19 -6 22
3 4 1 7 -5 7 -7 0 -12 -4 -12 -9z"/>
<path d="M1515 1930 c3 -5 8 -10 11 -10 2 0 4 5 4 10 0 6 -5 10 -11 10 -5 0
-7 -4 -4 -10z"/>
<path d="M948 1863 c7 -3 16 -2 19 1 4 3 -2 6 -13 5 -11 0 -14 -3 -6 -6z"/>
<path d="M2058 1833 c12 -2 30 -2 40 0 9 3 -1 5 -23 4 -22 0 -30 -2 -17 -4z"/>
<path d="M1520 1804 c-25 -15 -25 -15 -1 -8 18 5 22 3 16 -7 -5 -8 -4 -10 0
-6 7 6 17 38 12 37 -1 -1 -13 -7 -27 -16z"/>
<path d="M1460 1641 c0 -5 5 -13 10 -16 6 -3 10 -2 10 4 0 5 -4 13 -10 16 -5
3 -10 2 -10 -4z"/>
<path d="M1500 1390 c0 -5 5 -10 10 -10 6 0 10 5 10 10 0 6 -4 10 -10 10 -5 0
-10 -4 -10 -10z"/>
<path d="M1505 1252 c-10 -7 -18 -32 -10 -32 2 0 9 9 15 20 12 22 11 24 -5 12z"/>
<path d="M1585 1249 c-4 -6 -5 -12 -2 -15 2 -3 7 2 10 11 7 17 1 20 -8 4z"/>
<path d="M1590 960 c-9 -6 -10 -10 -3 -10 6 0 15 5 18 10 8 12 4 12 -15 0z"/>
<path d="M1381 533 c-1 -17 -4 -40 -7 -50 -5 -12 -4 -15 3 -8 14 13 35 77 23
70 -4 -3 -11 1 -13 7 -3 7 -6 -1 -6 -19z"/>
<path d="M1408 510 c-3 -14 -8 -34 -12 -45 -5 -14 -3 -13 5 3 7 13 17 21 23
19 15 -6 39 20 26 28 -6 3 -10 1 -10 -4 0 -18 -18 -12 -22 7 -3 13 -5 11 -10
-8z"/>
<path d="M1656 504 c-4 -9 -4 -19 -1 -22 2 -3 7 3 11 12 4 9 4 19 1 22 -2 3
-7 -3 -11 -12z"/>
<path d="M1455 480 c3 -5 -3 -10 -15 -10 -24 0 -38 -26 -21 -43 9 -9 18 -5 37
16 24 26 25 47 3 47 -6 0 -7 -4 -4 -10z"/>
<path d="M1475 439 c-11 -17 1 -21 15 -4 8 9 8 15 2 15 -6 0 -14 -5 -17 -11z"/>
<path d="M1350 410 c0 -6 7 -13 15 -16 8 -4 15 -14 16 -23 0 -11 2 -12 6 -3 3
8 -4 22 -16 33 -12 11 -21 15 -21 9z"/>
<path d="M1490 409 c0 -5 -4 -8 -9 -4 -5 3 -12 -3 -16 -14 -4 -13 -12 -17 -25
-14 -25 7 -26 -5 -2 -24 15 -13 15 -13 -5 -4 -33 16 -38 13 -18 -9 10 -11 29
-20 42 -20 24 0 31 14 13 25 -5 3 -10 11 -10 18 0 8 3 8 12 -1 15 -15 28 -15
28 -1 0 5 -4 8 -9 4 -5 -3 -13 0 -17 6 -9 15 15 29 35 21 14 -5 14 -3 2 11
-16 20 -21 21 -21 6z"/>
<path d="M1555 390 c4 -11 2 -20 -4 -20 -5 0 -12 8 -15 18 -2 9 -4 1 -3 -18 2
-42 27 -48 38 -10 l7 25 1 -24 c1 -13 4 -22 7 -18 11 10 -5 54 -22 61 -12 4
-14 1 -9 -14z"/>
<path d="M1400 390 c0 -5 4 -10 9 -10 6 0 13 5 16 10 3 6 -1 10 -9 10 -9 0
-16 -4 -16 -10z"/>
<path d="M1617 370 c3 -10 0 -21 -6 -24 -18 -12 -12 -26 10 -26 28 0 59 18 59
35 0 17 -8 23 -42 29 -21 3 -25 1 -21 -14z m38 -20 c-3 -5 -11 -10 -16 -10 -6
0 -7 5 -4 10 3 6 11 10 16 10 6 0 7 -4 4 -10z"/>
<path d="M1522 310 c-4 -3 -8 -14 -10 -25 -2 -16 -1 -17 7 -5 9 12 11 10 11
-12 0 -14 3 -34 7 -44 4 -12 3 -15 -5 -10 -8 5 -12 -2 -12 -20 0 -15 3 -24 8
-20 4 4 7 13 7 19 0 7 5 12 12 12 7 0 18 6 24 13 7 6 26 12 42 12 17 0 36 8
43 18 18 23 17 35 -1 28 -8 -3 -15 -1 -15 4 0 5 9 12 20 15 11 3 20 11 20 17
0 6 -17 -2 -37 -18 -20 -15 -34 -23 -30 -17 3 5 0 10 -8 10 -8 0 -12 -4 -9 -9
3 -4 0 -16 -5 -25 -10 -17 -10 -17 -12 0 -3 31 -4 35 -11 43 -5 4 -8 -1 -8
-12 0 -16 -2 -16 -10 -4 -10 17 6 31 27 23 7 -3 13 0 13 6 0 10 -55 11 -68 1z
m35 -82 c-3 -7 -5 -2 -5 12 0 14 2 19 5 13 2 -7 2 -19 0 -25z m78 22 c-3 -5
-11 -10 -16 -10 -6 0 -7 5 -4 10 3 6 11 10 16 10 6 0 7 -4 4 -10z"/>
<path d="M1428 301 c8 -4 13 -11 13 -15 -3 -20 1 -26 14 -26 8 0 15 -4 15 -10
0 -5 -7 -7 -15 -4 -8 4 -15 1 -15 -5 0 -6 18 -11 43 -10 37 0 40 2 20 11 -13
6 -23 15 -23 20 0 5 4 6 10 3 6 -3 7 1 4 9 -3 9 -10 16 -16 16 -5 0 -6 -6 -2
-12 4 -7 -4 -3 -18 10 -13 12 -28 22 -34 22 -5 0 -3 -4 4 -9z"/>
</g>
</svg>
